<?xml version="1.0" encoding="UTF-8" standalone="no"?>
<!-- Created with Inkscape (http://www.inkscape.org/) -->

<svg
   xmlns:dc="http://purl.org/dc/elements/1.1/"
   xmlns:cc="http://creativecommons.org/ns#"
   xmlns:rdf="http://www.w3.org/1999/02/22-rdf-syntax-ns#"
   xmlns:svg="http://www.w3.org/2000/svg"
   xmlns="http://www.w3.org/2000/svg"
   xmlns:sodipodi="http://sodipodi.sourceforge.net/DTD/sodipodi-0.dtd"
   xmlns:inkscape="http://www.inkscape.org/namespaces/inkscape"
   id="svg4244"
   version="1.1"
   inkscape:version="0.48.3.1 r9886"
   width="990"
   height="765"
   xml:space="preserve"
   sodipodi:docname="ink_ext_XXXXXX.svgXOLY5W"><sodipodi:namedview
     pagecolor="#ffffff"
     bordercolor="#666666"
     borderopacity="1"
     objecttolerance="10"
     gridtolerance="10"
     guidetolerance="10"
     inkscape:pageopacity="0"
     inkscape:pageshadow="2"
     inkscape:window-width="1280"
     inkscape:window-height="750"
     id="namedview4246"
     showgrid="false"
     inkscape:zoom="1.4326797"
     inkscape:cx="356.39197"
     inkscape:cy="272.24113"
     inkscape:window-x="0"
     inkscape:window-y="0"
     inkscape:window-maximized="1"
     inkscape:current-layer="g4254" /><metadata
     id="metadata4250"><rdf:RDF><cc:Work
         rdf:about=""><dc:format>image/svg+xml</dc:format><dc:type
           rdf:resource="http://purl.org/dc/dcmitype/StillImage" /></cc:Work></rdf:RDF></metadata><defs
     id="defs4248"><marker
       style="overflow:visible;"
       id="Arrow1Lend"
       refX="0.0"
       refY="0.0"
       orient="auto"
       inkscape:stockid="Arrow1Lend"><path
         transform="scale(0.8) rotate(180) translate(12.5,0)"
         style="fill-rule:evenodd;stroke:#000000;stroke-width:1.0pt;"
         d="M 0.0,0.0 L 5.0,-5.0 L -12.5,0.0 L 5.0,5.0 L 0.0,0.0 z "
         id="path8145" /></marker><clipPath
       id="clipPath4258"
       clipPathUnits="userSpaceOnUse"><path
         id="path4260"
         clip-rule="evenodd"
         d="M 0,0 792,0 792,612 0,612 0,0 z" /></clipPath></defs><g
     transform="matrix(1.25,0,0,-1.25,0,765)"
     inkscape:label="grafo_lista_nivel_logico"
     inkscape:groupmode="layer"
     id="g4252"><g
       id="g4254"><g
   id="g4290"><path
     d="m 297.3,584.6 c 6.2,0 10.9,-4.7 10.9,-10.9 0,-6.2 -4.7,-10.9 -10.9,-10.9 -6.2,0 -10.9,4.7 -10.9,10.9 0,6.2 4.7,10.9 10.9,10.9 z"
     style="fill:none;stroke:none"
     id="path4292"
     inkscape:connector-curvature="0" /></g><g
   id="g4294"><path
     d="m 286.4,584.6 0,0 z"
     style="fill:none;stroke:none"
     id="path4296"
     inkscape:connector-curvature="0" /></g><g
   id="g4302"><text
   transform="matrix(1,0,0,-1,289.1,590.8)"
   id="text4304"><tspan
     style="font-size:12px;font-variant:normal;font-weight:normal;writing-mode:lr-tb;fill:#000000;fill-opacity:1;fill-rule:nonzero;stroke:none;font-family:Liberation Sans;-inkscape-font-specification:LiberationSans"
     x="0 2.6040001 9.2880001 15.972"
     y="0"
     sodipodi:role="line"
     id="tspan4306">inp1</tspan></text>

</g><g
   id="g4310"><path
     d="m 300,478 c 6.2,0 10.9,-4.7 10.9,-10.9 0,-6.1 -4.7,-10.8 -10.9,-10.8 -6.2,0 -10.9,4.7 -10.9,10.8 0,6.2 4.7,10.9 10.9,10.9 z"
     style="fill:none;stroke:none"
     id="path4312"
     inkscape:connector-curvature="0" /></g><g
   id="g4314"><path
     d="m 289.1,478 0,0 z"
     style="fill:none;stroke:none"
     id="path4316"
     inkscape:connector-curvature="0" /></g><g
   id="g4318"><path
     d="m 310.9,456.2 0,0 z"
     style="fill:none;stroke:none"
     id="path4320"
     inkscape:connector-curvature="0" /></g><g
   id="g4322"><text
   transform="matrix(1,0,0,-1,287.4,482.8)"
   id="text4324"><tspan
     style="font-size:12px;font-variant:normal;font-weight:normal;writing-mode:lr-tb;fill:#000000;fill-opacity:1;fill-rule:nonzero;stroke:none;font-family:Liberation Sans;-inkscape-font-specification:LiberationSans"
     x="0 2.688 9.3719997 16.056"
     y="0"
     sodipodi:role="line"
     id="tspan4326">inp2</tspan></text>

</g><g
   id="g4330"><path
     d="m 299.3,403.8 c 6.2,0 10.9,-4.7 10.9,-10.9 0,-6.1 -4.7,-10.8 -10.9,-10.8 -6.2,0 -10.9,4.7 -10.9,10.8 0,6.2 4.7,10.9 10.9,10.9 z"
     style="fill:none;stroke:none"
     id="path4332"
     inkscape:connector-curvature="0" /></g><g
   id="g4334"><path
     d="m 288.4,403.8 0,0 z"
     style="fill:none;stroke:none"
     id="path4336"
     inkscape:connector-curvature="0" /></g><g
   id="g4342"><text
   transform="matrix(1,0,0,-1,287.4,409.5)"
   id="text4344"><tspan
     style="font-size:12px;font-variant:normal;font-weight:normal;writing-mode:lr-tb;fill:#000000;fill-opacity:1;fill-rule:nonzero;stroke:none;font-family:Liberation Sans;-inkscape-font-specification:LiberationSans"
     x="0 3.3840001 10.068 13.452"
     y="0"
     sodipodi:role="line"
     id="tspan4346">f1:q</tspan></text>

</g><g
   id="g4350"><path
     d="m 391,417 c 6.2,0 10.9,-4.7 10.9,-10.8 0,-6.2 -4.7,-10.9 -10.9,-10.9 -6.2,0 -10.9,4.7 -10.9,10.9 0,6.1 4.7,10.8 10.9,10.8 z"
     style="fill:none;stroke:none"
     id="path4352"
     inkscape:connector-curvature="0" /></g><g
   id="g4354"><path
     d="m 380.1,417 0,0 z"
     style="fill:none;stroke:none"
     id="path4356"
     inkscape:connector-curvature="0" /></g><g
   id="g4358"><path
     d="m 401.9,395.3 0,0 z"
     style="fill:none;stroke:none"
     id="path4360"
     inkscape:connector-curvature="0" /></g><g
   id="g4362"><text
   transform="matrix(1,0,0,-1,378.2,420.5)"
   id="text4364"><tspan
     style="font-size:14px;font-variant:normal;font-weight:normal;writing-mode:lr-tb;fill:#000000;fill-opacity:1;fill-rule:nonzero;stroke:none;font-family:Liberation Sans;-inkscape-font-specification:LiberationSans"
     x="0 7.7839999 15.568 19.558001"
     y="0"
     sodipodi:role="line"
     id="tspan4366">u2:a</tspan></text>

</g><g
   id="g4370"><path
     d="m 526.8,421.8 c 6.2,0 10.9,-4.7 10.9,-10.8 0,-6.2 -4.7,-10.9 -10.9,-10.9 -6.2,0 -10.9,4.7 -10.9,10.9 0,6.1 4.7,10.8 10.9,10.8 z"
     style="fill:none;stroke:none"
     id="path4372"
     inkscape:connector-curvature="0" /></g><g
   id="g4374"><path
     d="m 515.9,421.8 0,0 z"
     style="fill:none;stroke:none"
     id="path4376"
     inkscape:connector-curvature="0" /></g><g
   id="g4382"><text
   transform="matrix(1,0,0,-1,514.2,426.8)"
   id="text4384"><tspan
     style="font-size:14px;font-variant:normal;font-weight:normal;writing-mode:lr-tb;fill:#000000;fill-opacity:1;fill-rule:nonzero;stroke:none;font-family:Liberation Sans;-inkscape-font-specification:LiberationSans"
     x="0 7.7839999 15.568 19.558001"
     y="0"
     sodipodi:role="line"
     id="tspan4386">u2:o</tspan></text>

</g><g
   id="g4390"><path
     d="m 391,558.5 c 6.2,0 10.9,-4.7 10.9,-10.9 0,-6.2 -4.7,-10.9 -10.9,-10.9 -6.2,0 -10.9,4.7 -10.9,10.9 0,6.2 4.7,10.9 10.9,10.9 z"
     style="fill:none;stroke:none"
     id="path4392"
     inkscape:connector-curvature="0" /></g><g
   id="g4394"><path
     d="m 380.1,558.5 0,0 z"
     style="fill:none;stroke:none"
     id="path4396"
     inkscape:connector-curvature="0" /></g><g
   id="g4398"><path
     d="m 401.9,536.7 0,0 z"
     style="fill:none;stroke:none"
     id="path4400"
     inkscape:connector-curvature="0" /></g><g
   id="g4402"><text
   transform="matrix(1,0,0,-1,381,562.5)"
   id="text4404"><tspan
     style="font-size:14px;font-variant:normal;font-weight:normal;writing-mode:lr-tb;fill:#000000;fill-opacity:1;fill-rule:nonzero;stroke:none;font-family:Liberation Sans;-inkscape-font-specification:LiberationSans"
     x="0 7.7839999 15.568 19.558001"
     y="0"
     sodipodi:role="line"
     id="tspan4406">u1:a</tspan></text>

</g><g
   id="g4410"><path
     d="m 390.9,509.5 c 6.1,0 10.9,-4.7 10.9,-10.9 0,-6.1 -4.8,-10.8 -10.9,-10.8 -6.2,0 -10.9,4.7 -10.9,10.8 0,6.2 4.7,10.9 10.9,10.9 z"
     style="fill:none;stroke:none"
     id="path4412"
     inkscape:connector-curvature="0" /></g><g
   id="g4414"><path
     d="m 380,509.5 0,0 z"
     style="fill:none;stroke:none"
     id="path4416"
     inkscape:connector-curvature="0" /></g><g
   id="g4418"><path
     d="m 401.8,487.7 0,0 z"
     style="fill:none;stroke:none"
     id="path4420"
     inkscape:connector-curvature="0" /></g><g
   id="g4422"><text
   transform="matrix(1,0,0,-1,375.4,513.4)"
   id="text4424"><tspan
     style="font-size:14px;font-variant:normal;font-weight:normal;writing-mode:lr-tb;fill:#000000;fill-opacity:1;fill-rule:nonzero;stroke:none;font-family:Liberation Sans;-inkscape-font-specification:LiberationSans"
     x="0 7.7839999 15.568 19.459999"
     y="0"
     sodipodi:role="line"
     id="tspan4426">u1:b</tspan></text>

</g><g
   transform="translate(-13.40146,2.2335766)"
   id="g4430"><path
     d="m 479.2,530.1 c 6.2,0 10.9,-4.7 10.9,-10.8 0,-6.2 -4.7,-10.9 -10.9,-10.9 -6.2,0 -10.9,4.7 -10.9,10.9 0,6.1 4.7,10.8 10.9,10.8 z"
     style="fill:none;stroke:none"
     id="path4432"
     inkscape:connector-curvature="0" /></g><g
   transform="translate(-13.40146,2.2335766)"
   id="g4434"><path
     d="m 468.3,530.1 0,0 z"
     style="fill:none;stroke:none"
     id="path4436"
     inkscape:connector-curvature="0" /></g><g
   transform="translate(-13.40146,2.2335766)"
   id="g4438"><path
     d="m 490.1,508.3 0,0 z"
     style="fill:none;stroke:none"
     id="path4440"
     inkscape:connector-curvature="0" /></g><g
   transform="translate(-13.40146,2.2335766)"
   id="g4442"><text
   transform="matrix(1,0,0,-1,467.2,535.7)"
   id="text4444"><tspan
     style="font-size:14px;font-variant:normal;font-weight:normal;writing-mode:lr-tb;fill:#000000;fill-opacity:1;fill-rule:nonzero;stroke:none;font-family:Liberation Sans;-inkscape-font-specification:LiberationSans"
     x="0 7.7839999 15.568 19.459999"
     y="0"
     sodipodi:role="line"
     id="tspan4446">u1:o</tspan></text>

</g><g
   id="g4450"><path
     d="m 567.8,533.3 c 6.1,0 10.9,-4.7 10.9,-10.9 0,-6.2 -4.8,-10.9 -10.9,-10.9 -6.2,0 -10.9,4.7 -10.9,10.9 0,6.2 4.7,10.9 10.9,10.9 z"
     style="fill:none;stroke:none"
     id="path4452"
     inkscape:connector-curvature="0" /></g><g
   id="g4458"><path
     d="m 578.7,511.5 0,0 z"
     style="fill:none;stroke:none"
     id="path4460"
     inkscape:connector-curvature="0" /></g><g
   id="g4462"><text
   transform="matrix(1,0,0,-1,557.4,540.4)"
   id="text4464"><tspan
     style="font-size:12px;font-variant:normal;font-weight:normal;writing-mode:lr-tb;fill:#000000;fill-opacity:1;fill-rule:nonzero;stroke:none;font-family:Liberation Sans;-inkscape-font-specification:LiberationSans"
     x="0 3.3840001 10.068 13.452"
     y="0"
     sodipodi:role="line"
     id="tspan4466">f1:d</tspan></text>

</g><g
   id="g4470"><path
     d="m 602.1,421.8 c 6.2,0 10.9,-4.7 10.9,-10.8 0,-6.2 -4.7,-10.9 -10.9,-10.9 -6.2,0 -10.9,4.7 -10.9,10.9 0,6.1 4.7,10.8 10.9,10.8 z"
     style="fill:none;stroke:none"
     id="path4472"
     inkscape:connector-curvature="0" /></g><g
   id="g4474"><path
     d="m 591.2,421.8 0,0 z"
     style="fill:none;stroke:none"
     id="path4476"
     inkscape:connector-curvature="0" /></g><g
   id="g4478"><path
     d="m 613,400.1 0,0 z"
     style="fill:none;stroke:none"
     id="path4480"
     inkscape:connector-curvature="0" /></g><g
   transform="translate(0.7896886,-1.9742215)"
   id="g4482"><text
   transform="matrix(1,0,0,-1,593.3,427.9)"
   id="text4484"><tspan
     style="font-size:12px;font-variant:normal;font-weight:normal;writing-mode:lr-tb;fill:#000000;fill-opacity:1;fill-rule:nonzero;stroke:none;font-family:Liberation Sans;-inkscape-font-specification:LiberationSans"
     x="0 6.684 13.368"
     y="0"
     sodipodi:role="line"
     id="tspan4486">out</tspan></text>

</g><g
   id="g4770"><path
     d="m 86.3,485.5 c 6.2,0 10.9,-4.7 10.9,-10.9 0,-6.2 -4.7,-10.9 -10.9,-10.9 -6.2,0 -10.9,4.7 -10.9,10.9 0,6.2 4.7,10.9 10.9,10.9 z"
     style="fill:none;stroke:none"
     id="path4772"
     inkscape:connector-curvature="0" /></g><g
   id="g4774"><path
     d="m 75.4,485.5 0,0 z"
     style="fill:none;stroke:none"
     id="path4776"
     inkscape:connector-curvature="0" /></g><g
   transform="translate(0,-6.7007299)"
   id="g4782"><text
   transform="matrix(1,0,0,-1,67.8,492.2)"
   id="text4784"><tspan
     style="font-size:12px;font-variant:normal;font-weight:normal;writing-mode:lr-tb;fill:#000000;fill-opacity:1;fill-rule:nonzero;stroke:none;font-family:Liberation Sans;-inkscape-font-specification:LiberationSans"
     x="0 3.3840001 10.068 16.752001 20.136"
     y="0"
     sodipodi:role="line"
     id="tspan4786">fonte</tspan></text>

</g><g
   id="g4790"><path
     d="m 697.3,487.6 c 6.1,0 10.9,-4.7 10.9,-10.9 0,-6.2 -4.8,-10.9 -10.9,-10.9 -6.2,0 -10.9,4.7 -10.9,10.9 0,6.2 4.7,10.9 10.9,10.9 z"
     style="fill:none;stroke:none"
     id="path4792"
     inkscape:connector-curvature="0" /></g><g
   id="g4798"><path
     d="m 708.2,465.8 0,0 z"
     style="fill:none;stroke:none"
     id="path4800"
     inkscape:connector-curvature="0" /></g><g
   id="g4802"><text
   transform="matrix(1,0,0,-1,682.6,495.1)"
   id="text4804"><tspan
     style="font-size:12px;font-variant:normal;font-weight:normal;writing-mode:lr-tb;fill:#000000;fill-opacity:1;fill-rule:nonzero;stroke:none;font-family:Liberation Sans;-inkscape-font-specification:LiberationSans"
     x="0 3.3840001 10.068 13.968 23.964001 26.568001 33.251999 40.043999"
     y="0"
     sodipodi:role="line"
     id="tspan4806">terminal</tspan></text>

</g><g
   id="g4818"><path
     d="m 195.1,561.6 c 6.2,0 10.9,-4.7 10.9,-10.9 0,-6.1 -4.7,-10.8 -10.9,-10.8 -6.2,0 -10.9,4.7 -10.9,10.8 0,6.2 4.7,10.9 10.9,10.9 z"
     style="fill:none;stroke:none"
     id="path4820"
     inkscape:connector-curvature="0" /></g><g
   id="g4822"><path
     d="m 184.2,561.6 0,0 z"
     style="fill:none;stroke:none"
     id="path4824"
     inkscape:connector-curvature="0" /></g><g
   id="g4826"><path
     d="m 206,539.8 0,0 z"
     style="fill:none;stroke:none"
     id="path4828"
     inkscape:connector-curvature="0" /></g><g
   transform="translate(1.1167883,-2.2335766)"
   id="g4830"><text
   transform="matrix(1,0,0,-1,179.4,569.2)"
   id="text4832"><tspan
     style="font-size:12px;font-variant:normal;font-weight:normal;writing-mode:lr-tb;fill:#000000;fill-opacity:1;fill-rule:nonzero;stroke:none;font-family:Liberation Sans;-inkscape-font-specification:LiberationSans"
     x="0 2.688 9.3719997 16.056 22.74 26.124001"
     y="0"
     sodipodi:role="line"
     id="tspan4834">inp1:a</tspan></text>

</g><g
   id="g4838"><path
     d="m 195.1,480 c 6.2,0 10.9,-4.7 10.9,-10.9 0,-6.1 -4.7,-10.9 -10.9,-10.9 -6.2,0 -10.9,4.8 -10.9,10.9 0,6.2 4.7,10.9 10.9,10.9 z"
     style="fill:none;stroke:none"
     id="path4840"
     inkscape:connector-curvature="0" /></g><g
   id="g4842"><path
     d="m 184.2,480 0,0 z"
     style="fill:none;stroke:none"
     id="path4844"
     inkscape:connector-curvature="0" /></g><g
   id="g4846"><path
     d="m 206,458.2 0,0 z"
     style="fill:none;stroke:none"
     id="path4848"
     inkscape:connector-curvature="0" /></g><g
   id="g4850"><text
   transform="matrix(1,0,0,-1,179.4,486.4)"
   id="text4852"><tspan
     style="font-size:12px;font-variant:normal;font-weight:normal;writing-mode:lr-tb;fill:#000000;fill-opacity:1;fill-rule:nonzero;stroke:none;font-family:Liberation Sans;-inkscape-font-specification:LiberationSans"
     x="0 2.688 9.3719997 16.056 22.74 26.124001"
     y="0"
     sodipodi:role="line"
     id="tspan4854">inp2:a</tspan></text>

</g><g
   id="g4858"><path
     d="m 195.1,414.7 c 6.2,0 10.9,-4.7 10.9,-10.9 0,-6.2 -4.7,-10.9 -10.9,-10.9 -6.2,0 -10.9,4.7 -10.9,10.9 0,6.2 4.7,10.9 10.9,10.9 z"
     style="fill:none;stroke:none"
     id="path4860"
     inkscape:connector-curvature="0" /></g><g
   id="g4862"><path
     d="m 184.2,414.7 0,0 z"
     style="fill:none;stroke:none"
     id="path4864"
     inkscape:connector-curvature="0" /></g><g
   id="g4866"><path
     d="m 206,392.9 0,0 z"
     style="fill:none;stroke:none"
     id="path4868"
     inkscape:connector-curvature="0" /></g><g
   id="g4870"><text
   transform="matrix(1,0,0,-1,183,420.3)"
   id="text4872"><tspan
     style="font-size:12px;font-variant:normal;font-weight:normal;writing-mode:lr-tb;fill:#000000;fill-opacity:1;fill-rule:nonzero;stroke:none;font-family:Liberation Sans;-inkscape-font-specification:LiberationSans"
     x="0 3.3840001 10.068 13.452 19.452"
     y="0"
     sodipodi:role="line"
     id="tspan4874">f1:ck</tspan></text>

</g><g
   id="g5960"><text
   transform="matrix(1,0,0,-1,597.9,333.4)"
   id="text5962"><tspan
     style="font-size:18px;font-variant:normal;font-weight:normal;writing-mode:lr-tb;fill:#000000;fill-opacity:1;fill-rule:nonzero;stroke:none;font-family:Liberation Sans;-inkscape-font-specification:LiberationSans"
     x="0 14.994 25.002001 28.908001 38.916 44.91 49.896 59.903999 64.889999 73.889999 83.898003 87.893997 92.879997 96.786003 106.794 116.802 120.708 129.70799"
     y="0"
     sodipodi:role="line"
     id="tspan5964">Maior nível lógico</tspan></text>

</g><g
   id="g5966"><text
   transform="matrix(1,0,0,-1,39.9,333.4)"
   id="text5968"><tspan
     style="font-size:18px;font-variant:normal;font-weight:normal;writing-mode:lr-tb;fill:#000000;fill-opacity:1;fill-rule:nonzero;stroke:none;font-family:Liberation Sans;-inkscape-font-specification:LiberationSans"
     x="0 14.994 25.002001 34.902 44.91 50.903999 55.889999 65.898003 70.884003 79.884003 89.891998 93.797997 98.874001 102.87 112.77 122.778 126.684 135.68401"
     y="0"
     sodipodi:role="line"
     id="tspan5970">Menor nível lógico</tspan></text>

</g><path
   transform="matrix(0.8,0,0,-0.8,110.33074,689.05839)"
   d="m 117.96077,172.40419 c 0,7.32432 -5.93753,13.26186 -13.26186,13.26186 -7.32432,0 -13.261857,-5.93754 -13.261857,-13.26186 0,-7.32432 5.937537,-13.26186 13.261857,-13.26186 7.32433,0 13.26186,5.93754 13.26186,13.26186 z"
   sodipodi:ry="13.261861"
   sodipodi:rx="13.261861"
   sodipodi:cy="172.40419"
   sodipodi:cx="104.69891"
   id="path5972-3"
   style="fill:#00ffff;stroke:none"
   sodipodi:type="arc" /><path
   transform="matrix(0.8,0,0,-0.8,111.05269,608.55382)"
   d="m 117.96077,172.40419 c 0,7.32432 -5.93753,13.26186 -13.26186,13.26186 -7.32432,0 -13.261857,-5.93754 -13.261857,-13.26186 0,-7.32432 5.937537,-13.26186 13.261857,-13.26186 7.32433,0 13.26186,5.93754 13.26186,13.26186 z"
   sodipodi:ry="13.261861"
   sodipodi:rx="13.261861"
   sodipodi:cy="172.40419"
   sodipodi:cx="104.69891"
   id="path5972-3-0"
   style="fill:#00ffff;stroke:none"
   sodipodi:type="arc" /><path
   transform="matrix(0.8,0,0,-0.8,109.9359,543.61655)"
   d="m 117.96077,172.40419 c 0,7.32432 -5.93753,13.26186 -13.26186,13.26186 -7.32432,0 -13.261857,-5.93754 -13.261857,-13.26186 0,-7.32432 5.937537,-13.26186 13.261857,-13.26186 7.32433,0 13.26186,5.93754 13.26186,13.26186 z"
   sodipodi:ry="13.261861"
   sodipodi:rx="13.261861"
   sodipodi:cy="172.40419"
   sodipodi:cx="104.69891"
   id="path5972-3-0-4"
   style="fill:#00ffff;stroke:none"
   sodipodi:type="arc" /><path
   transform="matrix(0.8,0,0,-0.8,213.86496,604.18247)"
   d="m 117.96077,172.40419 c 0,7.32432 -5.93753,13.26186 -13.26186,13.26186 -7.32432,0 -13.261857,-5.93754 -13.261857,-13.26186 0,-7.32432 5.937537,-13.26186 13.261857,-13.26186 7.32433,0 13.26186,5.93754 13.26186,13.26186 z"
   sodipodi:ry="13.261861"
   sodipodi:rx="13.261861"
   sodipodi:cy="172.40419"
   sodipodi:cx="104.69891"
   id="path5972-3-0-4-0"
   style="fill:#00ffff;stroke:none"
   sodipodi:type="arc" /><path
   transform="matrix(0.8,0,0,-0.8,214.58691,531.03284)"
   d="m 117.96077,172.40419 c 0,7.32432 -5.93753,13.26186 -13.26186,13.26186 -7.32432,0 -13.261857,-5.93754 -13.261857,-13.26186 0,-7.32432 5.937537,-13.26186 13.261857,-13.26186 7.32433,0 13.26186,5.93754 13.26186,13.26186 z"
   sodipodi:ry="13.261861"
   sodipodi:rx="13.261861"
   sodipodi:cy="172.40419"
   sodipodi:cx="104.69891"
   id="path5972-3-0-4-0-7"
   style="fill:#00ffff;stroke:none"
   sodipodi:type="arc" /><path
   transform="matrix(0.8,0,0,-0.8,216.07047,711.3264)"
   d="m 117.96077,172.40419 c 0,7.32432 -5.93753,13.26186 -13.26186,13.26186 -7.32432,0 -13.261857,-5.93754 -13.261857,-13.26186 0,-7.32432 5.937537,-13.26186 13.261857,-13.26186 7.32433,0 13.26186,5.93754 13.26186,13.26186 z"
   sodipodi:ry="13.261861"
   sodipodi:rx="13.261861"
   sodipodi:cy="172.40419"
   sodipodi:cx="104.69891"
   id="path5972-3-0-4-0-7-0"
   style="fill:#00ffff;stroke:none"
   sodipodi:type="arc" /><path
   transform="matrix(0.8,0,0,-0.8,311.52782,688.24064)"
   d="m 117.96077,172.40419 c 0,7.32432 -5.93753,13.26186 -13.26186,13.26186 -7.32432,0 -13.261857,-5.93754 -13.261857,-13.26186 0,-7.32432 5.937537,-13.26186 13.261857,-13.26186 7.32433,0 13.26186,5.93754 13.26186,13.26186 z"
   sodipodi:ry="13.261861"
   sodipodi:rx="13.261861"
   sodipodi:cy="172.40419"
   sodipodi:cx="104.69891"
   id="path5972-3-0-4-0-7-0-7"
   style="fill:#00ffff;stroke:none"
   sodipodi:type="arc" /><path
   transform="matrix(0.8,0,0,-0.8,306.32709,639.89164)"
   d="m 117.96077,172.40419 c 0,7.32432 -5.93753,13.26186 -13.26186,13.26186 -7.32432,0 -13.261857,-5.93754 -13.261857,-13.26186 0,-7.32432 5.937537,-13.26186 13.261857,-13.26186 7.32433,0 13.26186,5.93754 13.26186,13.26186 z"
   sodipodi:ry="13.261861"
   sodipodi:rx="13.261861"
   sodipodi:cy="172.40419"
   sodipodi:cx="104.69891"
   id="path5972-3-0-4-0-7-0-7-8"
   style="fill:#00ffff;stroke:none"
   sodipodi:type="arc" /><path
   transform="matrix(0.8,0,0,-0.8,611.8645,612.88549)"
   d="m 117.96077,172.40419 c 0,7.32432 -5.93753,13.26186 -13.26186,13.26186 -7.32432,0 -13.261857,-5.93754 -13.261857,-13.26186 0,-7.32432 5.937537,-13.26186 13.261857,-13.26186 7.32433,0 13.26186,5.93754 13.26186,13.26186 z"
   sodipodi:ry="13.261861"
   sodipodi:rx="13.261861"
   sodipodi:cy="172.40419"
   sodipodi:cx="104.69891"
   id="path5972-3-0-4-0-7-0-7-8-4-3-8-6"
   style="fill:#00002e;fill-opacity:1;stroke:none"
   sodipodi:type="arc" /><path
   transform="matrix(0.8,0,0,-0.8,384.70551,656.237)"
   d="m 117.96077,172.40419 c 0,7.32432 -5.93753,13.26186 -13.26186,13.26186 -7.32432,0 -13.261857,-5.93754 -13.261857,-13.26186 0,-7.32432 5.937537,-13.26186 13.261857,-13.26186 7.32433,0 13.26186,5.93754 13.26186,13.26186 z"
   sodipodi:ry="13.261861"
   sodipodi:rx="13.261861"
   sodipodi:cy="172.40419"
   sodipodi:cx="104.69891"
   id="path5972-3-0-4-0-7-0-7-8-4-3-8-6-2"
   style="fill:#0000ff;fill-opacity:1;stroke:none"
   sodipodi:type="arc" /><path
   transform="matrix(0.8,0,0,-0.8,485.7071,664.92356)"
   d="m 117.96077,172.40419 c 0,7.32432 -5.93753,13.26186 -13.26186,13.26186 -7.32432,0 -13.261857,-5.93754 -13.261857,-13.26186 0,-7.32432 5.937537,-13.26186 13.261857,-13.26186 7.32433,0 13.26186,5.93754 13.26186,13.26186 z"
   sodipodi:ry="13.261861"
   sodipodi:rx="13.261861"
   sodipodi:cy="172.40419"
   sodipodi:cx="104.69891"
   id="path5972-3-0-4-0-7-0-7-8-4-3-8-6-7"
   style="fill:#00002e;fill-opacity:1;stroke:none"
   sodipodi:type="arc" /><path
   transform="matrix(0.8,0,0,-0.8,443.75979,550.48084)"
   d="m 117.96077,172.40419 c 0,7.32432 -5.93753,13.26186 -13.26186,13.26186 -7.32432,0 -13.261857,-5.93754 -13.261857,-13.26186 0,-7.32432 5.937537,-13.26186 13.261857,-13.26186 7.32433,0 13.26186,5.93754 13.26186,13.26186 z"
   sodipodi:ry="13.261861"
   sodipodi:rx="13.261861"
   sodipodi:cy="172.40419"
   sodipodi:cx="104.69891"
   id="path5972-3-0-4-0-7-0-7-8-4-3-8-6-7-1"
   style="fill:#00002e;fill-opacity:1;stroke:none"
   sodipodi:type="arc" /><path
   transform="matrix(0.8,0,0,-0.8,518.18977,549.13275)"
   d="m 117.96077,172.40419 c 0,7.32432 -5.93753,13.26186 -13.26186,13.26186 -7.32432,0 -13.261857,-5.93754 -13.261857,-13.26186 0,-7.32432 5.937537,-13.26186 13.261857,-13.26186 7.32433,0 13.26186,5.93754 13.26186,13.26186 z"
   sodipodi:ry="13.261861"
   sodipodi:rx="13.261861"
   sodipodi:cy="172.40419"
   sodipodi:cx="104.69891"
   id="path5972-3-0-4-0-7-0-7-8-4-3-8-6-7-1-4"
   style="fill:#00002e;fill-opacity:1;stroke:none"
   sodipodi:type="arc" /><path
   transform="matrix(0.8,0,0,-0.8,308.30131,546.24497)"
   d="m 117.96077,172.40419 c 0,7.32432 -5.93753,13.26186 -13.26186,13.26186 -7.32432,0 -13.261857,-5.93754 -13.261857,-13.26186 0,-7.32432 5.937537,-13.26186 13.261857,-13.26186 7.32433,0 13.26186,5.93754 13.26186,13.26186 z"
   sodipodi:ry="13.261861"
   sodipodi:rx="13.261861"
   sodipodi:cy="172.40419"
   sodipodi:cx="104.69891"
   id="path5972-3-0-4-0-7-0-7-8-2"
   style="fill:#00ffff;stroke:none"
   sodipodi:type="arc" /><rect
   transform="matrix(0.8,0,0,-0.8,0,612)"
   y="8.3759127"
   x="61.423359"
   height="298.74088"
   width="473.23904"
   id="rect7914"
   style="fill:none;fill-opacity:1;stroke:#000000;stroke-opacity:1;stroke-width:1;stroke-miterlimit:4;stroke-dasharray:1,1;stroke-dashoffset:0" /><rect
   transform="scale(1,-1)"
   y="-569.73743"
   x="500.77368"
   height="191.84845"
   width="233.5256"
   id="rect7914-0"
   style="fill:none;stroke:#000000;stroke-width:0.56293571;stroke-miterlimit:4;stroke-opacity:1;stroke-dasharray:0.5629357, 0.5629357;stroke-dashoffset:0" /><path
   transform="matrix(0.8,0,0,-0.8,0,612)"
   inkscape:connector-curvature="0"
   id="path7952"
   d="M 113.77281,169.61223 230.33759,81.665146"
   style="fill:none;stroke:#000000;stroke-width:1px;stroke-linecap:butt;stroke-linejoin:miter;stroke-opacity:1;marker-start:none;marker-end:url(#Arrow1Lend)" /><path
   transform="matrix(0.8,0,0,-0.8,0,612)"
   inkscape:connector-curvature="0"
   id="path7954"
   d="m 116.56478,175.89416 112.37683,-0.69799"
   style="fill:none;stroke:#000000;stroke-width:1px;stroke-linecap:butt;stroke-linejoin:miter;stroke-opacity:1;marker-start:none;marker-end:url(#Arrow1Lend)" /><path
   transform="matrix(0.8,0,0,-0.8,0,612)"
   inkscape:connector-curvature="0"
   id="path7956"
   d="m 112.37682,182.87409 117.26278,67.0073"
   style="fill:none;stroke:#000000;stroke-width:1px;stroke-linecap:butt;stroke-linejoin:miter;stroke-opacity:1;marker-start:none;marker-end:url(#Arrow1Lend)" /><path
   transform="matrix(0.8,0,0,-0.8,-6.7753011e-6,609.76642)"
   d="m 117.96077,172.40419 c 0,7.32432 -5.93753,13.26186 -13.26186,13.26186 -7.32432,0 -13.261857,-5.93754 -13.261857,-13.26186 0,-7.32432 5.937537,-13.26186 13.261857,-13.26186 7.32433,0 13.26186,5.93754 13.26186,13.26186 z"
   sodipodi:ry="13.261861"
   sodipodi:rx="13.261861"
   sodipodi:cy="172.40419"
   sodipodi:cx="104.69891"
   id="path5972"
   style="fill:#00ffff;stroke:none"
   sodipodi:type="arc" /><path
   transform="matrix(0.8,0,0,-0.8,0,612)"
   inkscape:connector-curvature="0"
   id="path8600"
   d="M 251.97537,70.497262 361.56022,52.349452"
   style="fill:none;stroke:#000000;stroke-width:1px;stroke-linecap:butt;stroke-linejoin:miter;stroke-opacity:1;marker-end:url(#Arrow1Lend)" /><path
   transform="matrix(0.8,0,0,-0.8,0,612)"
   inkscape:connector-curvature="0"
   id="path8602"
   d="m 254.06934,173.80018 104.00092,9.7719"
   style="fill:none;stroke:#000000;stroke-width:1px;stroke-linecap:butt;stroke-linejoin:miter;stroke-opacity:1;marker-end:url(#Arrow1Lend)" /><path
   transform="matrix(0.8,0,0,-0.8,0,612)"
   inkscape:connector-curvature="0"
   id="path8604"
   d="m 252.67336,258.2573 106.79288,18.14781"
   style="fill:none;stroke:#000000;stroke-width:1px;stroke-linecap:butt;stroke-linejoin:miter;stroke-opacity:1;marker-end:url(#Arrow1Lend)" /><path
   transform="matrix(0.8,0,0,-0.8,0,612)"
   inkscape:connector-curvature="0"
   id="path8606"
   d="m 385.29197,273.61314 90.73905,-16.75183"
   style="fill:none;stroke:#000000;stroke-width:1px;stroke-linecap:butt;stroke-linejoin:miter;stroke-opacity:1;marker-end:url(#Arrow1Lend)" /><path
   transform="matrix(0.8,0,0,-0.8,0,612)"
   inkscape:connector-curvature="0"
   id="path8608"
   d="m 385.29197,179.38412 87.94708,-37.6916"
   style="fill:none;stroke:#000000;stroke-width:1px;stroke-linecap:butt;stroke-linejoin:miter;stroke-opacity:1;marker-end:url(#Arrow1Lend)" /><path
   transform="matrix(0.8,0,0,-0.8,0,612)"
   inkscape:connector-curvature="0"
   id="path8610"
   d="m 386.68796,46.067518 92.83303,30.711679"
   style="fill:none;stroke:#000000;stroke-width:1px;stroke-linecap:butt;stroke-linejoin:miter;stroke-opacity:1;marker-end:url(#Arrow1Lend)" /><path
   transform="matrix(0.8,0,0,-0.8,0,612)"
   inkscape:connector-curvature="0"
   id="path8612"
   d="m 503.95073,79.571168 69.10128,33.503652"
   style="fill:none;stroke:#000000;stroke-width:1px;stroke-linecap:butt;stroke-linejoin:miter;stroke-opacity:1;marker-end:url(#Arrow1Lend)" /><path
   transform="matrix(0.8,0,0,-0.8,0,612)"
   inkscape:connector-curvature="0"
   id="path8614"
   d="m 500.46077,135.41058 71.89324,-19.54379"
   style="fill:none;stroke:#000000;stroke-width:1px;stroke-linecap:butt;stroke-linejoin:miter;stroke-opacity:1;marker-end:url(#Arrow1Lend)" /><path
   transform="matrix(0.8,0,0,-0.8,0,612)"
   inkscape:connector-curvature="0"
   id="path8616"
   d="m 503.95073,252.67336 140.99453,-6.28194"
   style="fill:none;stroke:#000000;stroke-width:1px;stroke-linecap:butt;stroke-linejoin:miter;stroke-opacity:1;marker-end:url(#Arrow1Lend)" /><path
   transform="matrix(0.8,0,0,-0.8,0,612)"
   inkscape:connector-curvature="0"
   id="path8618"
   d="m 673.56296,247.08942 64.21533,1.39598"
   style="fill:none;stroke:#000000;stroke-width:1px;stroke-linecap:butt;stroke-linejoin:miter;stroke-opacity:1;marker-end:url(#Arrow1Lend)" /><path
   transform="matrix(0.8,0,0,-0.8,0,612)"
   inkscape:connector-curvature="0"
   id="path8620"
   d="M 598.17974,115.86679 697.9927,105.3969"
   style="fill:none;stroke:#000000;stroke-width:1px;stroke-linecap:butt;stroke-linejoin:miter;stroke-opacity:1;marker-end:url(#Arrow1Lend)" /><path
   transform="matrix(0.8,0,0,-0.8,0,612)"
   inkscape:connector-curvature="0"
   id="path8624"
   d="m 722.42245,107.49088 133.3166,58.63138"
   style="fill:none;stroke:#000000;stroke-width:1px;stroke-linecap:butt;stroke-linejoin:miter;stroke-opacity:1;marker-end:url(#Arrow1Lend)" /><path
   transform="matrix(0.8,0,0,-0.8,0,612)"
   inkscape:connector-curvature="0"
   id="path8626"
   d="m 765.69799,249.88139 91.43705,-71.89325"
   style="fill:none;stroke:#000000;stroke-width:1px;stroke-linecap:butt;stroke-linejoin:miter;stroke-opacity:1;marker-end:url(#Arrow1Lend)" /><rect
   transform="scale(1,-1)"
   y="-253.51096"
   x="21.218977"
   height="49.138687"
   width="49.138687"
   id="rect8814"
   style="fill:#00ffff;fill-opacity:1;stroke:#000000;stroke-width:0.80000001;stroke-miterlimit:4;stroke-opacity:1;stroke-dasharray:none;stroke-dashoffset:0" /><text
   transform="scale(1,-1)"
   sodipodi:linespacing="125%"
   id="text8810"
   y="-283.23926"
   x="181.7592"
   style="font-size:55.73603058px;font-style:normal;font-variant:normal;font-weight:normal;font-stretch:normal;line-height:125%;letter-spacing:0px;word-spacing:0px;fill:#000000;fill-opacity:1;stroke:none;font-family:DejaVu Serif;-inkscape-font-specification:DejaVu Serif"
   xml:space="preserve"><tspan
     style="font-size:16.72080994px"
     y="-283.23926"
     x="181.7592"
     id="tspan8812"
     sodipodi:role="line">fonte inp1:a inp2:a f1:ck inp1 inp2 f1:q u1:a u1:b u2:a u1:o f1:d u2:o out terminal</tspan></text>

<path
   id="path9023"
   d="M356.39197,492.75887L356.39197,392.75887L390.043181033,347.36115588L431.429117196,332.241043444L390.043181033,347.36115588L356.39197,392.75887L311.234169664,336.373156262L255.402712416,325.13027325L213.0651858,343.565545613L255.402712416,325.13027325L311.234169664,336.373156262L356.39197,392.75887L356.39197,492.75887"
   style="stroke-linejoin:miter;stroke-opacity:1.0;fill-opacity:1.0;stroke:#000000;stroke-linecap:butt;stroke-width:1.0px;fill:none" /></g></g></svg>