<?xml version="1.0" encoding="UTF-8" standalone="no"?>
<!-- Created with Inkscape (http://www.inkscape.org/) -->

<svg
   xmlns:dc="http://purl.org/dc/elements/1.1/"
   xmlns:cc="http://creativecommons.org/ns#"
   xmlns:rdf="http://www.w3.org/1999/02/22-rdf-syntax-ns#"
   xmlns:svg="http://www.w3.org/2000/svg"
   xmlns="http://www.w3.org/2000/svg"
   xmlns:sodipodi="http://sodipodi.sourceforge.net/DTD/sodipodi-0.dtd"
   xmlns:inkscape="http://www.inkscape.org/namespaces/inkscape"
   width="744.09448819"
   height="1052.3622047"
   id="svg2"
   version="1.1"
   inkscape:version="0.48.3.1 r9886"
   sodipodi:docname="circuito.pdf">
  <defs
     id="defs4" />
  <sodipodi:namedview
     id="base"
     pagecolor="#ffffff"
     bordercolor="#666666"
     borderopacity="1.0"
     inkscape:pageopacity="0.0"
     inkscape:pageshadow="2"
     inkscape:zoom="0.70710678"
     inkscape:cx="130.48305"
     inkscape:cy="704.59893"
     inkscape:document-units="px"
     inkscape:current-layer="layer1"
     showgrid="false"
     inkscape:snap-page="true"
     inkscape:window-width="1280"
     inkscape:window-height="750"
     inkscape:window-x="0"
     inkscape:window-y="0"
     inkscape:window-maximized="1" />
  <metadata
     id="metadata7">
    <rdf:RDF>
      <cc:Work
         rdf:about="">
        <dc:format>image/svg+xml</dc:format>
        <dc:type
           rdf:resource="http://purl.org/dc/dcmitype/StillImage" />
        <dc:title></dc:title>
      </cc:Work>
    </rdf:RDF>
  </metadata>
  <g
     inkscape:label="Layer 1"
     inkscape:groupmode="layer"
     id="layer1">
    <path
       style="fill:#000000"
       d="m 553.55113,483.57019 -1.72177,0.0225 -9.17292,-16.30469 -9.17292,-16.30469 1.0961,-1.77352 1.09608,-1.77351 7.64639,0 7.64638,0 0,-15.40601 0,-15.40602 -9.03933,-0.52042 -9.03932,-0.52042 0.43044,-1.72178 0.43044,-1.72177 19.80043,0 19.80044,0 0.43044,1.72177 0.43045,1.72178 -9.03933,0.52042 -9.03933,0.52042 0,15.40602 0,15.40601 8.60888,0 8.60889,0 0,2.46689 c 0,1.35678 -4.0677,9.48186 -9.03933,18.05574 l -9.03933,15.58884 -1.72178,0.0224 z m 0,-5.14196 c 0.30977,0 3.72939,-5.49166 7.59917,-12.20368 3.86977,-6.71204 7.03594,-12.52304 7.03594,-12.91333 0,-0.39031 -6.5858,-0.70965 -14.63511,-0.70965 -8.0493,0 -14.63509,0.31934 -14.63509,0.70965 0,0.39029 3.16617,6.20129 7.03593,12.91333 3.86978,6.71202 7.2894,12.20368 7.59916,12.20368 z m 121.27022,-17.61979 -44.02036,0.45887 -1.17629,-1.17628 -1.17628,-1.17627 0,-11.76548 0,-11.76547 -10.18984,0 c -5.60441,0 -11.41541,-0.47028 -12.91332,-1.04511 -1.49793,-0.57479 -2.72349,-1.737 -2.72349,-2.58265 l 0,-1.53758 12.91332,0 12.91333,0 0,-31.77419 0,-31.7742 -11.622,-0.50912 c -6.39209,-0.28001 -22.66288,-0.2756 -36.1573,0.0106 l -24.53532,0.51891 0,15.31755 0,15.31754 8.63148,0.52042 8.63148,0.52043 -0.0225,1.72177 -0.0226,1.72179 -19.80043,0 -19.80043,0 -0.0225,-1.72179 -0.0225,-1.72177 8.6315,-0.52043 8.63147,-0.52042 0,-15.30701 0,-15.307 -7.31755,-0.52945 c -4.02466,-0.29121 -11.86774,-0.26214 -17.42908,0.0645 l -10.11152,0.59403 -1.88795,5.00175 -1.88796,5.00174 -1.77474,-0.002 -1.77473,-0.002 -3.555,-8.7372 -3.555,-8.73719 -1.49888,0 -1.49887,0 -3.55502,8.73719 -3.555,8.7372 -1.72178,0 -1.72177,0 -3.555,-8.7372 -3.55501,-8.73719 -1.49887,0 -1.49888,0 -3.555,8.73719 -3.55501,8.7372 -1.77319,0.002 -1.77319,0.002 -3.39214,-8.7684 c -1.86567,-4.82263 -3.97468,-9.13065 -4.68669,-9.57339 l -1.29456,-0.80497 -1.67594,4.40806 -1.67594,4.40804 -9.94282,-0.0263 -9.94284,-0.0263 -2.13168,-1.35388 -2.1317,-1.35388 -0.45096,-67.06038 -0.45116,-67.06093 -22.81354,-0.48042 -22.81354,-0.48042 0,15.456 0,15.45597 9.03933,0.52043 9.03933,0.52042 -0.43045,1.72177 -0.43045,1.72179 -19.80043,0 -19.80043,0 -0.43045,-1.72179 -0.43043,-1.72177 9.03932,-0.52042 9.03932,-0.52043 0,-15.40601 0,-15.406 -8.75843,0 -8.75846,0 -1.94968,5.16532 -1.94971,5.16533 -1.77474,-0.001 -1.77473,-0.002 -3.555,-8.73721 -3.55501,-8.73718 -1.49887,0 -1.49888,0 -3.555,8.73718 -3.55501,8.73721 -1.72178,0 -1.72177,0 -3.55501,-8.73721 -3.555,-8.73718 -1.49888,0 -1.49887,0 -3.555,8.73718 -3.55501,8.73721 -1.77319,0.002 -1.77319,0.001 -3.39214,-8.76841 c -1.86568,-4.82262 -3.97469,-9.13064 -4.68669,-9.57338 l -1.29457,-0.80496 -1.6407,4.31537 -1.6407,4.31536 -9.11717,0.52313 -9.11719,0.52312 -0.49612,14.97329 -0.49613,14.97328 8.69716,0.52271 8.69717,0.5227 -0.0225,1.72177 -0.0226,1.72179 -19.80043,0 -19.80043,0 -0.0225,-1.72179 -0.0226,-1.72177 8.69718,-0.5227 8.69715,-0.52271 -0.49612,-14.97328 -0.49631,-14.97329 -75.75817,-0.86088 -75.75818,-0.8609 -8.60888,1.30761 c -4.73489,0.71919 -9.88867,1.35416 -11.45286,1.41108 l -2.84393,0.10352 -1.049358,5.59353 -1.049351,5.59354 -5.153209,7.00726 -5.15321,7.00727 -6.449464,3.11262 -6.449485,3.1126 -24.104872,0.0933 -24.104873,0.0933 -0.524776,-8.17843 -0.524787,-8.17844 -10.095494,0 C 9.9899534,245.98871 4.2213968,245.51843 2.7234876,244.94362 1.2255572,244.36882 0,243.20662 0,242.36095 l 0,-1.53756 12.913323,0 12.913324,0 0,-14.63511 0,-14.6351 -10.189836,0 c -5.604412,0 -11.4154142,-0.47029 -12.9133234,-1.0451 C 1.2255572,209.93329 0,208.77108 0,207.92541 l 0,-1.53756 12.818993,0 12.818983,0 0.524787,-8.17844 0.524776,-8.17843 20.661324,0 20.661314,0 8.042594,3.10363 8.042605,3.10363 6.964611,7.5557 6.964599,7.55571 1.105875,4.4062 1.105909,4.40622 2.91253,0 c 1.60189,0 3.70218,0.78964 4.66729,1.75475 l 1.75475,1.75475 83.38711,-0.64054 c 45.86291,-0.35229 84.16191,-0.72552 85.10888,-0.82942 0.94698,-0.10383 5.82758,0.24685 10.84578,0.77943 l 9.12401,0.96835 2.01458,-5.33721 2.01458,-5.33722 1.77474,0.001 1.77474,0.002 3.55501,8.73721 3.555,8.73719 1.49888,0 1.49887,0 3.55501,-8.73719 3.555,-8.73721 1.72177,0 1.72178,0 3.555,8.73721 3.555,8.73719 1.49888,0 1.49887,0 3.55501,-8.73719 3.555,-8.73721 1.77319,-0.002 1.77319,-0.001 3.39215,8.76841 c 1.86568,4.82262 3.97468,9.13064 4.68668,9.57338 l 1.29458,0.80497 1.6623,-4.37223 1.66231,-4.37221 34.92222,-0.46628 34.92222,-0.46627 0.45019,-68.44062 0.45021,-68.440615 11.32135,0 11.32135,0 1.9497,-5.16533 1.9497,-5.165329 1.77475,0.0017 1.77473,0.0016 3.67742,9.037691 3.67743,9.037676 1.48791,-0.574023 c 0.81834,-0.315723 3.03749,-4.38268 4.93145,-9.037693 l 3.44355,-8.463651 1.72179,0 1.72177,0 3.44355,8.463651 3.44356,8.463651 1.61032,0.273556 1.61033,0.273556 3.555,-8.737207 3.555,-8.737207 1.7732,-0.0016 1.77319,-0.0017 3.39214,8.768405 c 1.86567,4.822628 3.97468,9.130651 4.68669,9.573388 l 1.29456,0.804966 1.67593,-4.408042 1.67595,-4.408058 48.25236,0 48.25236,0 0,-14.635102 0,-14.635093 -10.18984,0 c -5.60442,0 -11.41541,-0.470286 -12.91332,-1.045101 -1.49793,-0.574798 -2.72349,-1.736997 -2.72349,-2.582665 l 0,-1.537564 12.81898,0 12.819,0 0.52477,-8.178444 0.52479,-8.178436 20.66131,0 20.66133,0 8.04259,3.103642 8.04261,3.103642 6.9646,7.555688 6.96461,7.555707 1.10587,4.406216 1.1059,4.40619 3.15528,0 3.15529,0 1.06411,1.721777 1.06411,1.721777 7.78987,0 7.78986,0 -0.71159,2.15222 -0.7116,2.152221 -8.4712,1.307603 c -4.65918,0.719187 -9.751,1.354178 -11.31519,1.411082 l -2.84395,0.103482 -1.04935,5.593537 -1.04935,5.593535 -5.15321,7.00727 -5.15321,7.007271 -6.44946,3.11261 -6.44948,3.11261 -24.10488,0.0933 -24.10487,0.0933 -0.52165,-8.101852 -0.52166,-8.101837 -11.53078,-0.507046 c -6.34193,-0.278859 -18.69768,-0.260161 -27.45722,0.04149 l -15.92644,0.548593 0,15.287862 0,15.28786 9.03933,0.52041 9.03933,0.52043 -0.43044,1.72178 -0.43045,1.72178 -19.80043,0 -19.80043,0 -0.43045,-1.72178 -0.43044,-1.72178 9.03932,-0.52043 9.03933,-0.52041 0,-15.30701 0,-15.307004 -7.31754,-0.529447 c -4.02466,-0.291186 -11.86774,-0.262123 -17.42908,0.06457 l -10.11152,0.594031 -1.88795,5.001744 -1.88796,5.001745 -1.77474,-0.002 -1.77474,-0.002 -3.555,-8.737203 -3.55501,-8.737207 -1.49887,0 -1.49888,0 -3.555,8.737207 -3.555,8.737203 -1.72178,0 -1.72177,0 -3.44356,-8.463647 -3.44355,-8.463669 -1.72177,0 -1.72179,0 -3.44355,8.463669 -3.44355,8.463647 -1.77319,0.002 -1.77319,0.002 -3.39214,-8.768408 c -1.86569,-4.822627 -3.97469,-9.130632 -4.68669,-9.573371 l -1.29458,-0.804981 -1.67592,4.408058 -1.67594,4.408041 -9.53284,0 -9.53286,0 0.45092,65.857951 0.45089,65.85795 8.29067,0.52937 8.29067,0.52937 1.98703,-5.26426 1.98703,-5.26425 1.77475,0.002 1.77473,0.002 3.67742,9.03767 c 2.02259,4.97074 4.24174,9.03769 4.93146,9.03769 0.68973,0 2.90888,-4.06695 4.93147,-9.03769 l 3.67741,-9.03767 1.72179,0 1.72177,0 3.44355,8.46365 3.44356,8.46365 1.72177,0 1.72178,0 3.44356,-8.46365 3.44354,-8.46365 1.7732,-0.002 1.77319,-0.002 3.39214,8.76841 c 1.86567,4.82262 3.97468,9.13065 4.68669,9.57338 l 1.29456,0.80497 1.67593,-4.40805 1.67595,-4.40804 54.27857,0 54.27859,0 0,-15.39438 0,-15.39439 1.90018,-1.17437 1.90019,-1.17439 22.92444,15.69306 22.92442,15.69305 5.09765,-1.01953 5.09766,-1.01954 1.17133,1.89526 1.17131,1.89523 12.09431,0 12.0943,0 -0.70915,2.15222 -0.70917,2.15222 -12.7781,1.20999 c -7.02795,0.66548 -13.74658,1.24658 -14.9303,1.29133 -1.18372,0.0448 -3.19075,-0.0479 -4.46004,-0.20563 l -2.30782,-0.28695 -23.37548,15.97316 -23.37548,15.97317 -1.86513,-1.15272 -1.86512,-1.1527 0,-15.30442 0,-15.30438 -9.03933,-0.52043 c -4.97163,-0.28623 -20.08023,-0.28692 -33.57465,-0.001 l -24.53532,0.51891 0,15.31754 0,15.31754 8.63148,0.52043 8.63148,0.52043 -0.0225,1.72177 -0.0226,1.72178 -19.80043,0 -19.80043,0 -0.43045,-1.72178 -0.43043,-1.72177 9.03933,-0.52043 9.03932,-0.52043 0,-15.307 0,-15.30701 -7.31755,-0.52945 c -4.02466,-0.29119 -11.86774,-0.26214 -17.42908,0.0645 l -10.11152,0.59403 -1.88794,5.00175 -1.88796,5.00174 -1.77474,-0.001 -1.77473,-0.002 -3.67743,-9.03768 -3.67742,-9.03769 -1.48791,0.57404 c -0.81834,0.31571 -3.0375,4.38266 -4.93146,9.03767 l -3.44356,8.46366 -1.72177,0 -1.72178,0 -3.67742,-9.03768 c -2.02268,-4.97071 -4.24183,-9.03767 -4.93155,-9.03767 -0.68972,0 -2.90887,4.06696 -4.93146,9.03768 l -3.67742,9.03769 -1.77319,0.002 -1.77319,0.001 -3.39214,-8.76841 c -1.86569,-4.82262 -3.97469,-9.13065 -4.68669,-9.57338 l -1.29458,-0.80497 -1.64069,4.31537 -1.64069,4.31537 -9.11718,0.52312 -9.11719,0.52313 -0.45089,65.85795 -0.45092,65.85796 8.77891,0 8.7789,0 1.9497,-5.16532 1.9497,-5.16534 1.77474,0.002 1.77474,0.002 3.44355,8.46364 3.44355,8.46366 1.61033,0.27355 1.61032,0.27354 3.55501,-8.73718 3.555,-8.73721 1.72178,0 1.72178,0 3.555,8.73721 3.55501,8.73718 1.49887,0 1.49888,0 3.555,-8.73718 3.555,-8.73721 1.7732,-0.002 1.77319,-0.002 3.39214,8.76841 c 1.86567,4.82263 3.97468,9.13065 4.68669,9.57339 l 1.29456,0.80496 1.67593,-4.40806 1.67595,-4.40804 56.78581,0 56.78581,0 0.50588,-12.48288 0.50587,-12.48287 44.7662,0 44.76619,0 0.50587,12.48287 0.50588,12.48288 12.12048,0 12.1205,0 -0.71115,2.15222 -0.71114,2.15222 -11.45726,0.50849 -11.45723,0.50848 -0.45798,46.84038 -0.45797,46.84037 -44.02035,0.45887 z m -0.74584,-4.76331 40.46174,0 0,-57.67952 0,-57.67952 -40.46174,0 -40.46176,0 0,41.29363 0,41.29364 8.60888,4.36246 c 4.73489,2.39934 8.60889,4.72374 8.60889,5.16532 0,0.44158 -3.874,2.76599 -8.60889,5.16533 l -8.60888,4.36245 0,6.85811 0,6.8581 40.46176,0 z m -39.68188,-18.93955 c 0.42893,0 2.79579,-0.91851 5.25968,-2.04115 l 4.47982,-2.04112 -3.96837,-2.20229 c -2.18259,-1.21126 -4.54944,-2.22976 -5.25968,-2.2633 l -1.29133,-0.0609 0,4.30444 c 0,2.36745 0.35095,4.30444 0.77988,4.30444 z M 61.676701,258.68113 l 14.327902,-0.67935 5.140235,-2.65811 5.140236,-2.65813 5.067171,-7.99012 5.067182,-7.9901 0,-9.30293 0,-9.30291 -2.815673,-5.93358 -2.815652,-5.93357 -7.52938,-5.18035 -7.52937,-5.18035 -9.885835,-1.6357 -9.885835,-1.6357 -12.482888,1.10491 -12.482877,1.1049 0,31.52105 0,31.52104 8.178436,0.7542 c 4.498144,0.41481 14.625999,0.44847 22.506348,0.0748 z m 587.696349,-16.48649 20.92465,-14.37947 -0.0279,-1.58533 -0.0279,-1.58535 -20.89673,-14.41361 -20.89678,-14.41361 0,30.37842 0,30.37841 20.92463,-14.37946 z M 103.30653,227.04883 c 0.94698,0 1.72177,-0.7748 1.72177,-1.72178 0,-0.94697 -0.77479,-1.72177 -1.72177,-1.72177 -0.94697,0 -1.72177,0.7748 -1.72177,1.72177 0,0.94698 0.7748,1.72178 1.72177,1.72178 z m 576.79519,0 c 0.94698,0 1.72178,-0.7748 1.72178,-1.72178 0,-0.94697 -0.7748,-1.72177 -1.72178,-1.72177 -0.94698,0 -1.72177,0.7748 -1.72177,1.72177 0,0.94698 0.77479,1.72178 1.72177,1.72178 z m -33.02096,-123.32756 14.32792,-0.67938 5.14023,-2.65812 5.14022,-2.65811 5.06717,-7.990128 5.0672,-7.990112 0,-9.302914 0,-9.302906 -2.81568,-5.933569 -2.81565,-5.933588 -7.52938,-5.180344 -7.52937,-5.180346 -9.88583,-1.635683 -9.88585,-1.635704 -12.48288,1.104897 -12.48287,1.104909 0,31.521026 0,31.521052 8.17843,0.75419 c 4.49815,0.41481 14.62599,0.44847 22.50634,0.0749 z m 41.62985,-31.632331 c 0.94697,0 1.72177,-0.774799 1.72177,-1.721777 0,-0.946977 -0.7748,-1.721776 -1.72177,-1.721776 -0.94698,0 -1.72178,0.774799 -1.72178,1.721776 0,0.946978 0.7748,1.721777 1.72178,1.721777 z m -410.64374,273.739121 -1.72178,0.0224 -9.17292,-16.30469 -9.17291,-16.30469 1.09609,-1.77351 1.09609,-1.77352 7.64638,0 7.64638,0 0,-15.40602 0,-15.406 -9.03933,-0.52043 -9.03933,-0.52043 0.43045,-1.72177 0.43045,-1.72178 19.80043,0 19.80043,0 0.43045,1.72178 0.43044,1.72177 -9.03933,0.52043 -9.03932,0.52043 0,15.406 0,15.40602 8.60888,0 8.60888,0 0,2.46689 c 0,1.35678 -4.0677,9.48185 -9.03933,18.05573 l -9.03933,15.58885 -1.72177,0.0226 z m 0,-5.14197 c 0.30976,0 3.72938,-5.49166 7.59916,-12.20368 3.86976,-6.71204 7.03594,-12.52303 7.03594,-12.91332 0,-0.39032 -6.5858,-0.70965 -14.6351,-0.70965 -8.04931,0 -14.6351,0.31933 -14.6351,0.70965 0,0.39029 3.16618,6.20128 7.03593,12.91332 3.86978,6.71202 7.2894,12.20368 7.59917,12.20368 z m 103.3066,5.14197 -1.72178,0.0224 -9.17292,-16.30469 -9.17292,-16.30469 1.0961,-1.77351 1.09609,-1.77352 7.64638,0 7.64638,0 0,-15.40602 0,-15.406 -9.03933,-0.52043 -9.03932,-0.52043 0.43044,-1.72177 0.43045,-1.72178 19.80043,0 19.80043,0 0.43044,1.72178 0.43045,1.72177 -9.03933,0.52043 -9.03933,0.52043 0,15.406 0,15.40602 8.60889,0 8.60888,0 0,2.46689 c 0,1.35678 -4.0677,9.48185 -9.03933,18.05573 l -9.03933,15.58885 -1.72177,0.0226 z m 0,-5.14197 c 0.30976,0 3.72938,-5.49166 7.59916,-12.20368 3.86977,-6.71204 7.03595,-12.52303 7.03595,-12.91332 0,-0.39032 -6.58581,-0.70965 -14.63511,-0.70965 -8.04931,0 -14.6351,0.31933 -14.6351,0.70965 0,0.39029 3.16617,6.20128 7.03593,12.91332 3.86978,6.71202 7.2894,12.20368 7.59917,12.20368 z m 172.17766,5.14197 -1.72177,0.0224 -9.17292,-16.30469 -9.17292,-16.30469 1.0961,-1.77351 1.09608,-1.77352 7.64639,0 7.64638,0 0,-15.40602 0,-15.406 -9.03933,-0.52043 -9.03932,-0.52043 0.43044,-1.72177 0.43044,-1.72178 19.80043,0 19.80044,0 0.43044,1.72178 0.43045,1.72177 -9.03933,0.52043 -9.03933,0.52043 0,15.406 0,15.40602 8.60888,0 8.60889,0 0,2.46689 c 0,1.35678 -4.0677,9.48185 -9.03933,18.05573 l -9.03933,15.58885 -1.72178,0.0226 z m 0,-5.14197 c 0.30977,0 3.72939,-5.49166 7.59917,-12.20368 3.86977,-6.71204 7.03594,-12.52303 7.03594,-12.91332 0,-0.39032 -6.5858,-0.70965 -14.63511,-0.70965 -8.0493,0 -14.63509,0.31933 -14.63509,0.70965 0,0.39029 3.16617,6.20128 7.03593,12.91332 3.86978,6.71202 7.2894,12.20368 7.59916,12.20368 z m 0,-132.60017 -1.72177,0.0226 -9.17292,-16.30469 -9.17292,-16.30469 1.0961,-1.77351 1.09608,-1.77352 7.64639,0 7.64638,0 0,-15.40601 0,-15.40601 -9.03933,-0.52042 -9.03932,-0.52042 0.43044,-1.72179 0.43044,-1.72177 19.80043,0 19.80044,0 0.43044,1.72177 0.43045,1.72179 -9.03933,0.52042 -9.03933,0.52042 0,15.40601 0,15.40601 8.60888,0 8.60889,0 0,2.46689 c 0,1.35678 -4.0677,9.48186 -9.03933,18.05575 l -9.03933,15.58884 -1.72178,0.0224 z m 0,-5.14197 c 0.30977,0 3.72939,-5.49165 7.59917,-12.20368 3.86977,-6.71202 7.03594,-12.52303 7.03594,-12.91332 0,-0.3903 -6.5858,-0.70965 -14.63511,-0.70965 -8.0493,0 -14.63509,0.31935 -14.63509,0.70965 0,0.39029 3.16617,6.2013 7.03593,12.91332 3.86978,6.71203 7.2894,12.20368 7.59916,12.20368 z"
       id="path3111"
       inkscape:connector-curvature="0" />
    <text
       xml:space="preserve"
       style="font-size:28.35470009px;font-style:normal;font-weight:normal;line-height:125%;letter-spacing:0px;word-spacing:0px;fill:#000000;fill-opacity:1;stroke:none;font-family:Sans"
       x="42.163425"
       y="183.25282"
       id="text3113"
       sodipodi:linespacing="125%"><tspan
         sodipodi:role="line"
         id="tspan3115"
         x="42.163425"
         y="183.25282"
         style="font-style:normal;font-variant:normal;font-weight:normal;font-stretch:normal;font-family:DejaVu Serif;-inkscape-font-specification:DejaVu Serif">u1</tspan></text>
    <text
       xml:space="preserve"
       style="font-size:28.35470009px;font-style:normal;font-weight:normal;line-height:125%;letter-spacing:0px;word-spacing:0px;fill:#000000;fill-opacity:1;stroke:none;font-family:Sans"
       x="624.1601"
       y="27.423334"
       id="text3113-7"
       sodipodi:linespacing="125%"><tspan
         sodipodi:role="line"
         id="tspan3115-8"
         x="624.1601"
         y="27.423334"
         style="font-style:normal;font-variant:normal;font-weight:normal;font-stretch:normal;font-family:DejaVu Serif;-inkscape-font-specification:DejaVu Serif">u2</tspan></text>
    <text
       xml:space="preserve"
       style="font-size:28.35470009px;font-style:normal;font-weight:normal;line-height:125%;letter-spacing:0px;word-spacing:0px;fill:#000000;fill-opacity:1;stroke:none;font-family:Sans"
       x="633.27686"
       y="193.60934"
       id="text3113-7-7"
       sodipodi:linespacing="125%"><tspan
         sodipodi:role="line"
         id="tspan3115-8-7"
         x="633.27686"
         y="193.60934"
         style="font-style:normal;font-variant:normal;font-weight:normal;font-stretch:normal;font-family:DejaVu Serif;-inkscape-font-specification:DejaVu Serif">u3</tspan></text>
    <text
       xml:space="preserve"
       style="font-size:28.35470009px;font-style:normal;font-weight:normal;line-height:125%;letter-spacing:0px;word-spacing:0px;fill:#000000;fill-opacity:1;stroke:none;font-family:Sans"
       x="649.98236"
       y="328.74966"
       id="text3113-7-7-1"
       sodipodi:linespacing="125%"><tspan
         sodipodi:role="line"
         id="tspan3115-8-7-3"
         x="649.98236"
         y="328.74966"
         style="font-style:normal;font-variant:normal;font-weight:normal;font-stretch:normal;font-family:DejaVu Serif;-inkscape-font-specification:DejaVu Serif">f1</tspan></text>
    <text
       xml:space="preserve"
       style="font-size:68.87106323px;font-style:normal;font-weight:normal;line-height:125%;letter-spacing:0px;word-spacing:0px;fill:#000000;fill-opacity:1;stroke:none;font-family:Sans"
       x="638.24921"
       y="371.38852"
       id="text3180"
       sodipodi:linespacing="125%"><tspan
         sodipodi:role="line"
         id="tspan3182"
         x="638.24921"
         y="371.38852"
         style="font-size:20.66132164px">d</tspan></text>
    <text
       xml:space="preserve"
       style="font-size:68.87106323px;font-style:normal;font-weight:normal;line-height:125%;letter-spacing:0px;word-spacing:0px;fill:#000000;fill-opacity:1;stroke:none;font-family:Sans"
       x="695.97766"
       y="367.52505"
       id="text3180-1"
       sodipodi:linespacing="125%"><tspan
         sodipodi:role="line"
         id="tspan3182-3"
         x="695.97766"
         y="367.52505"
         style="font-size:20.66132164px">q</tspan></text>
    <text
       xml:space="preserve"
       style="font-size:68.87106323px;font-style:normal;font-weight:normal;line-height:125%;letter-spacing:0px;word-spacing:0px;fill:#000000;fill-opacity:1;stroke:none;font-family:Sans"
       x="629.32715"
       y="231.3783"
       id="text3205"
       sodipodi:linespacing="125%"><tspan
         sodipodi:role="line"
         id="tspan3207"
         x="629.32715"
         y="231.3783"
         style="font-size:20.66132164px">a</tspan></text>
    <text
       xml:space="preserve"
       style="font-size:68.87106323px;font-style:normal;font-weight:normal;line-height:125%;letter-spacing:0px;word-spacing:0px;fill:#000000;fill-opacity:1;stroke:none;font-family:Sans"
       x="621.88794"
       y="58.656979"
       id="text3205-0"
       sodipodi:linespacing="125%"><tspan
         sodipodi:role="line"
         id="tspan3207-8"
         x="621.88794"
         y="58.656979"
         style="font-size:20.66132164px">a</tspan></text>
    <text
       xml:space="preserve"
       style="font-size:68.87106323px;font-style:normal;font-weight:normal;line-height:125%;letter-spacing:0px;word-spacing:0px;fill:#000000;fill-opacity:1;stroke:none;font-family:Sans"
       x="622.49658"
       y="93.963913"
       id="text3205-0-3"
       sodipodi:linespacing="125%"><tspan
         sodipodi:role="line"
         id="tspan3207-8-3"
         x="622.49658"
         y="93.963913"
         style="font-size:20.66132164px">b</tspan></text>
    <text
       xml:space="preserve"
       style="font-size:68.87106323px;font-style:normal;font-weight:normal;line-height:125%;letter-spacing:0px;word-spacing:0px;fill:#000000;fill-opacity:1;stroke:none;font-family:Sans"
       x="663.58173"
       y="77.764816"
       id="text3205-0-3-3"
       sodipodi:linespacing="125%"><tspan
         sodipodi:role="line"
         id="tspan3207-8-3-9"
         x="663.58173"
         y="77.764816"
         style="font-size:20.66132164px">o</tspan></text>
    <text
       xml:space="preserve"
       style="font-size:68.87106323px;font-style:normal;font-weight:normal;line-height:125%;letter-spacing:0px;word-spacing:0px;fill:#000000;fill-opacity:1;stroke:none;font-family:Sans"
       x="651.92035"
       y="230.84952"
       id="text3205-0-3-3-9"
       sodipodi:linespacing="125%"><tspan
         sodipodi:role="line"
         id="tspan3207-8-3-9-9"
         x="651.92035"
         y="230.84952"
         style="font-size:20.66132164px">o</tspan></text>
    <text
       xml:space="preserve"
       style="font-size:68.87106323px;font-style:normal;font-weight:normal;line-height:125%;letter-spacing:0px;word-spacing:0px;fill:#000000;fill-opacity:1;stroke:none;font-family:Sans"
       x="31.618956"
       y="213.88567"
       id="text3205-7"
       sodipodi:linespacing="125%"><tspan
         sodipodi:role="line"
         id="tspan3207-1"
         x="31.618956"
         y="213.88567"
         style="font-size:20.66132164px">a</tspan></text>
    <text
       xml:space="preserve"
       style="font-size:68.87106323px;font-style:normal;font-weight:normal;line-height:125%;letter-spacing:0px;word-spacing:0px;fill:#000000;fill-opacity:1;stroke:none;font-family:Sans"
       x="32.018867"
       y="247.93935"
       id="text3205-7-1"
       sodipodi:linespacing="125%"><tspan
         sodipodi:role="line"
         id="tspan3207-1-3"
         x="32.018867"
         y="247.93935"
         style="font-size:20.66132164px">b</tspan></text>
    <text
       xml:space="preserve"
       style="font-size:68.87106323px;font-style:normal;font-weight:normal;line-height:125%;letter-spacing:0px;word-spacing:0px;fill:#000000;fill-opacity:1;stroke:none;font-family:Sans"
       x="78.891838"
       y="230.32166"
       id="text3205-7-1-6"
       sodipodi:linespacing="125%"><tspan
         sodipodi:role="line"
         id="tspan3207-1-3-8"
         x="78.891838"
         y="230.32166"
         style="font-size:20.66132164px">o</tspan></text>
    <text
       xml:space="preserve"
       style="font-size:68.87106323px;font-style:normal;font-weight:normal;line-height:125%;letter-spacing:0px;word-spacing:0px;fill:#000000;fill-opacity:1;stroke:none;font-family:Sans"
       x="218.82732"
       y="275.81635"
       id="text3368"
       sodipodi:linespacing="125%"><tspan
         sodipodi:role="line"
         id="tspan3370"
         x="218.82732"
         y="275.81635"
         style="font-size:24.10487366px">C0</tspan></text>
    <text
       xml:space="preserve"
       style="font-size:68.87106323px;font-style:normal;font-weight:normal;line-height:125%;letter-spacing:0px;word-spacing:0px;fill:#000000;fill-opacity:1;stroke:none;font-family:Sans"
       x="323.99487"
       y="277.28598"
       id="text3368-8"
       sodipodi:linespacing="125%"><tspan
         sodipodi:role="line"
         id="tspan3370-5"
         x="323.99487"
         y="277.28598"
         style="font-size:24.10487366px">C1</tspan></text>
    <text
       xml:space="preserve"
       style="font-size:68.87106323px;font-style:normal;font-weight:normal;line-height:125%;letter-spacing:0px;word-spacing:0px;fill:#000000;fill-opacity:1;stroke:none;font-family:Sans"
       x="494.75391"
       y="140.31949"
       id="text3368-8-9"
       sodipodi:linespacing="125%"><tspan
         sodipodi:role="line"
         id="tspan3370-5-1"
         x="494.75391"
         y="140.31949"
         style="font-size:24.10487366px">C2</tspan></text>
    <text
       xml:space="preserve"
       style="font-size:68.87106323px;font-style:normal;font-weight:normal;line-height:125%;letter-spacing:0px;word-spacing:0px;fill:#000000;fill-opacity:1;stroke:none;font-family:Sans"
       x="495.45685"
       y="277.89468"
       id="text3368-8-9-5"
       sodipodi:linespacing="125%"><tspan
         sodipodi:role="line"
         id="tspan3370-5-1-5"
         x="495.45685"
         y="277.89468"
         style="font-size:24.10487366px">C3</tspan></text>
    <text
       xml:space="preserve"
       style="font-size:68.87106323px;font-style:normal;font-weight:normal;line-height:125%;letter-spacing:0px;word-spacing:0px;fill:#000000;fill-opacity:1;stroke:none;font-family:Sans"
       x="493.38928"
       y="413.64374"
       id="text3368-8-9-5-1"
       sodipodi:linespacing="125%"><tspan
         sodipodi:role="line"
         id="tspan3370-5-1-5-1"
         x="493.38928"
         y="413.64374"
         style="font-size:24.10487366px">C4</tspan></text>
    <text
       xml:space="preserve"
       style="font-size:68.87106323px;font-style:normal;font-weight:normal;line-height:125%;letter-spacing:0px;word-spacing:0px;fill:#000000;fill-opacity:1;stroke:none;font-family:Sans"
       x="316.2258"
       y="196.07138"
       id="text3456"
       sodipodi:linespacing="125%"><tspan
         sodipodi:role="line"
         id="tspan3458"
         x="316.2258"
         y="196.07138"
         style="font-size:24.10487366px">R1</tspan></text>
    <text
       xml:space="preserve"
       style="font-size:68.87106323px;font-style:normal;font-weight:normal;line-height:125%;letter-spacing:0px;word-spacing:0px;fill:#000000;fill-opacity:1;stroke:none;font-family:Sans"
       x="471.77155"
       y="66.064957"
       id="text3456-2"
       sodipodi:linespacing="125%"><tspan
         sodipodi:role="line"
         id="tspan3458-8"
         x="471.77155"
         y="66.064957"
         style="font-size:24.10487366px">R2</tspan></text>
    <text
       xml:space="preserve"
       style="font-size:68.87106323px;font-style:normal;font-weight:normal;line-height:125%;letter-spacing:0px;word-spacing:0px;fill:#000000;fill-opacity:1;stroke:none;font-family:Sans"
       x="470.64825"
       y="200.14664"
       id="text3456-2-1"
       sodipodi:linespacing="125%"><tspan
         sodipodi:role="line"
         id="tspan3458-8-9"
         x="470.64825"
         y="200.14664"
         style="font-size:24.10487366px">R3</tspan></text>
    <text
       xml:space="preserve"
       style="font-size:68.87106323px;font-style:normal;font-weight:normal;line-height:125%;letter-spacing:0px;word-spacing:0px;fill:#000000;fill-opacity:1;stroke:none;font-family:Sans"
       x="466.75443"
       y="338.76871"
       id="text3456-2-1-6"
       sodipodi:linespacing="125%"><tspan
         sodipodi:role="line"
         id="tspan3458-8-9-2"
         x="466.75443"
         y="338.76871"
         style="font-size:24.10487366px">R4</tspan></text>
  </g>
</svg>
