<?xml version="1.0" encoding="UTF-8" standalone="no"?>
<!-- Created with Inkscape (http://www.inkscape.org/) -->

<svg
   xmlns:dc="http://purl.org/dc/elements/1.1/"
   xmlns:cc="http://creativecommons.org/ns#"
   xmlns:rdf="http://www.w3.org/1999/02/22-rdf-syntax-ns#"
   xmlns:svg="http://www.w3.org/2000/svg"
   xmlns="http://www.w3.org/2000/svg"
   xmlns:sodipodi="http://sodipodi.sourceforge.net/DTD/sodipodi-0.dtd"
   xmlns:inkscape="http://www.inkscape.org/namespaces/inkscape"
   sodipodi:docname="modelagem.svg"
   inkscape:version="0.48.3.1 r9886"
   version="1.1"
   id="svg2"
   height="1052.3622047"
   width="744.09448819">
  <sodipodi:namedview
     id="base"
     pagecolor="#ffffff"
     bordercolor="#666666"
     borderopacity="1.0"
     inkscape:pageopacity="0.0"
     inkscape:pageshadow="2"
     inkscape:zoom="0.5"
     inkscape:cx="463.40302"
     inkscape:cy="664.31262"
     inkscape:document-units="px"
     inkscape:current-layer="layer1"
     showgrid="false"
     inkscape:snap-page="false"
     inkscape:window-width="1280"
     inkscape:window-height="750"
     inkscape:window-x="0"
     inkscape:window-y="0"
     inkscape:window-maximized="1" />
  <defs
     id="defs4">
    <marker
       inkscape:stockid="Arrow2Lend"
       orient="auto"
       refY="0.0"
       refX="0.0"
       id="Arrow2Lend"
       style="overflow:visible;">
      <path
         id="path4972"
         style="fill-rule:evenodd;stroke-width:0.62500000;stroke-linejoin:round;"
         d="M 8.7185878,4.0337352 L -2.2072895,0.016013256 L 8.7185884,-4.0017078 C 6.9730900,-1.6296469 6.9831476,1.6157441 8.7185878,4.0337352 z "
         transform="scale(1.1) rotate(180) translate(1,0)" />
    </marker>
    <marker
       inkscape:stockid="Arrow2Lend"
       orient="auto"
       refY="0"
       refX="0"
       id="Arrow2Lend-1"
       style="overflow:visible">
      <path
         inkscape:connector-curvature="0"
         id="path4972-9"
         style="fill-rule:evenodd;stroke-width:0.625;stroke-linejoin:round"
         d="M 8.7185878,4.0337352 -2.2072895,0.01601326 8.7185884,-4.0017078 c -1.7454984,2.3720609 -1.7354408,5.6174519 -6e-7,8.035443 z"
         transform="matrix(-1.1,0,0,-1.1,-1.1,0)" />
    </marker>
  </defs>
  <metadata
     id="metadata7">
    <rdf:RDF>
      <cc:Work
         rdf:about="">
        <dc:format>image/svg+xml</dc:format>
        <dc:type
           rdf:resource="http://purl.org/dc/dcmitype/StillImage" />
        <dc:title />
      </cc:Work>
    </rdf:RDF>
  </metadata>
  <g
     id="layer1"
     inkscape:groupmode="layer"
     inkscape:label="Layer 1">
    <path
       inkscape:connector-curvature="0"
       id="path3111"
       d="m 560.7227,553.25143 -1.72177,0.0225 -9.17292,-16.30469 -9.17292,-16.30469 1.0961,-1.77352 1.09608,-1.77351 7.64639,0 7.64638,0 0,-15.40601 0,-15.40602 -9.03933,-0.52042 -9.03932,-0.52042 0.43044,-1.72178 0.43044,-1.72177 19.80043,0 19.80044,0 0.43044,1.72177 0.43045,1.72178 -9.03933,0.52042 -9.03933,0.52042 0,15.40602 0,15.40601 8.60888,0 8.60889,0 0,2.46689 c 0,1.35678 -4.0677,9.48186 -9.03933,18.05574 l -9.03933,15.58884 -1.72178,0.0224 z m 0,-5.14196 c 0.30977,0 3.72939,-5.49166 7.59917,-12.20368 3.86977,-6.71204 7.03594,-12.52304 7.03594,-12.91333 0,-0.39031 -6.5858,-0.70965 -14.63511,-0.70965 -8.0493,0 -14.63509,0.31934 -14.63509,0.70965 0,0.39029 3.16617,6.20129 7.03593,12.91333 3.86978,6.71202 7.2894,12.20368 7.59916,12.20368 z m 121.27022,-17.61979 -44.02036,0.45887 -1.17629,-1.17628 -1.17628,-1.17627 0,-11.76548 0,-11.76547 -10.18984,0 c -5.60441,0 -11.41541,-0.47028 -12.91332,-1.04511 -1.49793,-0.57479 -2.72349,-1.737 -2.72349,-2.58265 l 0,-1.53758 12.91332,0 12.91333,0 0,-31.77419 0,-31.7742 -11.622,-0.50912 c -6.39209,-0.28001 -22.66288,-0.2756 -36.1573,0.0106 l -24.53532,0.51891 0,15.31755 0,15.31754 8.63148,0.52042 8.63148,0.52043 -0.0225,1.72177 -0.0226,1.72179 -19.80043,0 -19.80043,0 -0.0225,-1.72179 -0.0225,-1.72177 8.6315,-0.52043 8.63147,-0.52042 0,-15.30701 0,-15.307 -7.31755,-0.52945 c -4.02466,-0.29121 -11.86774,-0.26214 -17.42908,0.0645 l -10.11152,0.59403 -1.88795,5.00175 -1.88796,5.00174 -1.77474,-0.002 -1.77473,-0.002 -3.555,-8.7372 -3.555,-8.73719 -1.49888,0 -1.49887,0 -3.55502,8.73719 -3.555,8.7372 -1.72178,0 -1.72177,0 -3.555,-8.7372 -3.55501,-8.73719 -1.49887,0 -1.49888,0 -3.555,8.73719 -3.55501,8.7372 -1.77319,0.002 -1.77319,0.002 -3.39214,-8.7684 c -1.86567,-4.82263 -3.97468,-9.13065 -4.68669,-9.57339 l -1.29456,-0.80497 -1.67594,4.40806 -1.67594,4.40804 -9.94282,-0.0263 -9.94284,-0.0263 -2.13168,-1.35388 -2.1317,-1.35388 -0.45096,-67.06038 -0.45116,-67.06093 -22.81354,-0.48042 -22.81354,-0.48042 0,15.456 0,15.45597 9.03933,0.52043 9.03933,0.52042 -0.43045,1.72177 -0.43045,1.72179 -19.80043,0 -19.80043,0 -0.43045,-1.72179 -0.43043,-1.72177 9.03932,-0.52042 9.03932,-0.52043 0,-15.40601 0,-15.406 -8.75843,0 -8.75846,0 -1.94968,5.16532 -1.94971,5.16533 -1.77474,-0.001 -1.77473,-0.002 -3.555,-8.73721 -3.55501,-8.73718 -1.49887,0 -1.49888,0 -3.555,8.73718 -3.55501,8.73721 -1.72178,0 -1.72177,0 -3.55501,-8.73721 -3.555,-8.73718 -1.49888,0 -1.49887,0 -3.555,8.73718 -3.55501,8.73721 -1.77319,0.002 -1.77319,0.001 -3.39214,-8.76841 c -1.86568,-4.82262 -3.97469,-9.13064 -4.68669,-9.57338 l -1.29457,-0.80496 -1.6407,4.31537 -1.6407,4.31536 -9.11717,0.52313 -9.11719,0.52312 -0.49612,14.97329 -0.49613,14.97328 8.69716,0.52271 8.69717,0.5227 -0.0225,1.72177 -0.0226,1.72179 -19.80043,0 -19.80043,0 -0.0225,-1.72179 -0.0226,-1.72177 8.69718,-0.5227 8.69715,-0.52271 -0.49612,-14.97328 -0.49631,-14.97329 -75.75817,-0.86088 -75.75818,-0.8609 -8.60888,1.30761 c -4.73489,0.71919 -9.88867,1.35416 -11.45286,1.41108 l -2.84393,0.10352 -1.04936,5.59353 -1.04935,5.59354 -5.15321,7.00726 -5.153205,7.00727 -6.449464,3.11262 -6.449485,3.1126 -24.104872,0.0933 -24.104873,0.0933 -0.524776,-8.17843 -0.524787,-8.17844 -10.095494,0 c -5.552608,-6e-5 -11.321164,-0.47034 -12.8190735,-1.04515 -1.4979304,-0.5748 -2.7234876,-1.737 -2.7234876,-2.58267 l 0,-1.53756 12.9133231,0 12.913324,0 0,-14.63511 0,-14.6351 -10.189836,0 c -5.604412,0 -11.415414,-0.47029 -12.9133235,-1.0451 -1.4979304,-0.57479 -2.7234876,-1.737 -2.7234876,-2.58267 l 0,-1.53756 12.8189931,0 12.818983,0 0.524787,-8.17844 0.524776,-8.17843 20.661324,0 20.661314,0 8.042594,3.10363 8.042605,3.10363 6.964611,7.5557 6.9646,7.55571 1.10587,4.4062 1.10591,4.40622 2.91253,0 c 1.60189,0 3.70218,0.78964 4.66729,1.75475 l 1.75475,1.75475 83.38711,-0.64054 c 45.86291,-0.35229 84.16191,-0.72552 85.10888,-0.82942 0.94698,-0.10383 5.82758,0.24685 10.84578,0.77943 l 9.12401,0.96835 2.01458,-5.33721 2.01458,-5.33722 1.77474,10e-4 1.77474,0.002 3.55501,8.73721 3.555,8.73719 1.49888,0 1.49887,0 3.55501,-8.73719 3.555,-8.73721 1.72177,0 1.72178,0 3.555,8.73721 3.555,8.73719 1.49888,0 1.49887,0 3.55501,-8.73719 3.555,-8.73721 1.77319,-0.002 1.77319,-10e-4 3.39215,8.76841 c 1.86568,4.82262 3.97468,9.13064 4.68668,9.57338 l 1.29458,0.80497 1.6623,-4.37223 1.66231,-4.37221 34.92222,-0.46628 34.92222,-0.46627 0.45019,-68.44062 0.45021,-68.44061 11.32135,0 11.32135,0 1.9497,-5.16533 1.9497,-5.16533 1.77475,0.002 1.77473,0.002 3.67742,9.03769 3.67743,9.03767 1.48791,-0.57402 c 0.81834,-0.31572 3.03749,-4.38268 4.93145,-9.03769 l 3.44355,-8.46365 1.72179,0 1.72177,0 3.44355,8.46365 3.44356,8.46365 1.61032,0.27355 1.61033,0.27356 3.555,-8.73721 3.555,-8.7372 1.7732,-0.002 1.77319,-0.002 3.39214,8.7684 c 1.86567,4.82263 3.97468,9.13065 4.68669,9.57339 l 1.29456,0.80497 1.67593,-4.40805 1.67595,-4.40805 48.25236,0 48.25236,0 0,-14.63511 0,-14.63509 -10.18984,0 c -5.60442,0 -11.41541,-0.47029 -12.91332,-1.0451 -1.49793,-0.5748 -2.72349,-1.737 -2.72349,-2.58267 l 0,-1.53756 12.81898,0 12.819,0 0.52477,-8.17844 0.52479,-8.17844 20.66131,0 20.66133,0 8.04259,3.10364 8.04261,3.10364 6.9646,7.55569 6.96461,7.55571 1.10587,4.40622 1.1059,4.40619 3.15528,0 3.15529,0 1.06411,1.72177 1.06411,1.72178 7.78987,0 7.78986,0 -0.71159,2.15222 -0.7116,2.15222 -8.4712,1.3076 c -4.65918,0.71919 -9.751,1.35418 -11.31519,1.41109 l -2.84395,0.10348 -1.04935,5.59353 -1.04935,5.59354 -5.15321,7.00727 -5.15321,7.00727 -6.44946,3.11261 -6.44948,3.11261 -24.10488,0.0933 -24.10487,0.0933 -0.52165,-8.10185 -0.52166,-8.10184 -11.53078,-0.50704 c -6.34193,-0.27886 -18.69768,-0.26017 -27.45722,0.0415 l -15.92644,0.54859 0,15.28786 0,15.28786 9.03933,0.52041 9.03933,0.52043 -0.43044,1.72178 -0.43045,1.72178 -19.80043,0 -19.80043,0 -0.43045,-1.72178 -0.43044,-1.72178 9.03932,-0.52043 9.03933,-0.52041 0,-15.30701 0,-15.307 -7.31754,-0.52945 c -4.02466,-0.29119 -11.86774,-0.26212 -17.42908,0.0646 l -10.11152,0.59403 -1.88795,5.00174 -1.88796,5.00175 -1.77474,-0.002 -1.77474,-0.002 -3.555,-8.7372 -3.55501,-8.73721 -1.49887,0 -1.49888,0 -3.555,8.73721 -3.555,8.7372 -1.72178,0 -1.72177,0 -3.44356,-8.46365 -3.44355,-8.46367 -1.72177,0 -1.72179,0 -3.44355,8.46367 -3.44355,8.46365 -1.77319,0.002 -1.77319,0.002 -3.39214,-8.76841 c -1.86569,-4.82263 -3.97469,-9.13063 -4.68669,-9.57337 l -1.29458,-0.80498 -1.67592,4.40806 -1.67594,4.40804 -9.53284,0 -9.53286,0 0.45092,65.85795 0.45089,65.85795 8.29067,0.52937 8.29067,0.52937 1.98703,-5.26426 1.98703,-5.26425 1.77475,0.002 1.77473,0.002 3.67742,9.03767 c 2.02259,4.97074 4.24174,9.03769 4.93146,9.03769 0.68973,0 2.90888,-4.06695 4.93147,-9.03769 l 3.67741,-9.03767 1.72179,0 1.72177,0 3.44355,8.46365 3.44356,8.46365 1.72177,0 1.72178,0 3.44356,-8.46365 3.44354,-8.46365 1.7732,-0.002 1.77319,-0.002 3.39214,8.76841 c 1.86567,4.82262 3.97468,9.13065 4.68669,9.57338 l 1.29456,0.80497 1.67593,-4.40805 1.67595,-4.40804 54.27857,0 54.27859,0 0,-15.39438 0,-15.39439 1.90018,-1.17437 1.90019,-1.17439 22.92444,15.69306 22.92442,15.69305 5.09765,-1.01953 5.09766,-1.01954 1.17133,1.89526 1.17131,1.89523 12.09431,0 12.0943,0 -0.70915,2.15222 -0.70917,2.15222 -12.7781,1.20999 c -7.02795,0.66548 -13.74658,1.24658 -14.9303,1.29133 -1.18372,0.0448 -3.19075,-0.0479 -4.46004,-0.20563 l -2.30782,-0.28695 -23.37548,15.97316 -23.37548,15.97317 -1.86513,-1.15272 -1.86512,-1.1527 0,-15.30442 0,-15.30438 -9.03933,-0.52043 c -4.97163,-0.28623 -20.08023,-0.28692 -33.57465,-10e-4 l -24.53532,0.51891 0,15.31754 0,15.31754 8.63148,0.52043 8.63148,0.52043 -0.0225,1.72177 -0.0226,1.72178 -19.80043,0 -19.80043,0 -0.43045,-1.72178 -0.43043,-1.72177 9.03933,-0.52043 9.03932,-0.52043 0,-15.307 0,-15.30701 -7.31755,-0.52945 c -4.02466,-0.29119 -11.86774,-0.26214 -17.42908,0.0645 l -10.11152,0.59403 -1.88794,5.00175 -1.88796,5.00174 -1.77474,-10e-4 -1.77473,-0.002 -3.67743,-9.03768 -3.67742,-9.03769 -1.48791,0.57404 c -0.81834,0.31571 -3.0375,4.38266 -4.93146,9.03767 l -3.44356,8.46366 -1.72177,0 -1.72178,0 -3.67742,-9.03768 c -2.02268,-4.97071 -4.24183,-9.03767 -4.93155,-9.03767 -0.68972,0 -2.90887,4.06696 -4.93146,9.03768 l -3.67742,9.03769 -1.77319,0.002 -1.77319,10e-4 -3.39214,-8.76841 c -1.86569,-4.82262 -3.97469,-9.13065 -4.68669,-9.57338 l -1.29458,-0.80497 -1.64069,4.31537 -1.64069,4.31537 -9.11718,0.52312 -9.11719,0.52313 -0.45089,65.85795 -0.45092,65.85796 8.77891,0 8.7789,0 1.9497,-5.16532 1.9497,-5.16534 1.77474,0.002 1.77474,0.002 3.44355,8.46364 3.44355,8.46366 1.61033,0.27355 1.61032,0.27354 3.55501,-8.73718 3.555,-8.73721 1.72178,0 1.72178,0 3.555,8.73721 3.55501,8.73718 1.49887,0 1.49888,0 3.555,-8.73718 3.555,-8.73721 1.7732,-0.002 1.77319,-0.002 3.39214,8.76841 c 1.86567,4.82263 3.97468,9.13065 4.68669,9.57339 l 1.29456,0.80496 1.67593,-4.40806 1.67595,-4.40804 56.78581,0 56.78581,0 0.50588,-12.48288 0.50587,-12.48287 44.7662,0 44.76619,0 0.50587,12.48287 0.50588,12.48288 12.12048,0 12.1205,0 -0.71115,2.15222 -0.71114,2.15222 -11.45726,0.50849 -11.45723,0.50848 -0.45798,46.84038 -0.45797,46.84037 -44.02035,0.45887 z m -0.74584,-4.76331 40.46174,0 0,-57.67952 0,-57.67952 -40.46174,0 -40.46176,0 0,41.29363 0,41.29364 8.60888,4.36246 c 4.73489,2.39934 8.60889,4.72374 8.60889,5.16532 0,0.44158 -3.874,2.76599 -8.60889,5.16533 l -8.60888,4.36245 0,6.85811 0,6.8581 40.46176,0 z M 641.5652,506.78682 c 0.42893,0 2.79579,-0.91851 5.25968,-2.04115 l 4.47982,-2.04112 -3.96837,-2.20229 c -2.18259,-1.21126 -4.54944,-2.22976 -5.25968,-2.2633 l -1.29133,-0.0609 0,4.30444 c 0,2.36745 0.35095,4.30444 0.77988,4.30444 z M 68.848274,328.36237 l 14.327902,-0.67935 5.140235,-2.65811 5.140236,-2.65813 5.067171,-7.99012 5.067182,-7.9901 0,-9.30293 0,-9.30291 -2.81567,-5.93358 -2.815655,-5.93357 -7.52938,-5.18035 -7.52937,-5.18035 -9.885835,-1.6357 -9.885835,-1.6357 -12.482888,1.10491 -12.482877,1.1049 0,31.52105 0,31.52104 8.178436,0.7542 c 4.498144,0.41481 14.625999,0.44847 22.506348,0.0748 z m 587.696346,-16.48649 20.92465,-14.37947 -0.0279,-1.58533 -0.0279,-1.58535 -20.89673,-14.41361 -20.89678,-14.41361 0,30.37842 0,30.37841 20.92463,-14.37946 z M 110.4781,296.73007 c 0.94698,0 1.72177,-0.7748 1.72177,-1.72178 0,-0.94697 -0.77479,-1.72177 -1.72177,-1.72177 -0.94697,0 -1.72177,0.7748 -1.72177,1.72177 0,0.94698 0.7748,1.72178 1.72177,1.72178 z m 576.79519,0 c 0.94698,0 1.72178,-0.7748 1.72178,-1.72178 0,-0.94697 -0.7748,-1.72177 -1.72178,-1.72177 -0.94698,0 -1.72177,0.7748 -1.72177,1.72177 0,0.94698 0.77479,1.72178 1.72177,1.72178 z m -33.02096,-123.32756 14.32792,-0.67938 5.14023,-2.65812 5.14022,-2.65811 5.06717,-7.99013 5.0672,-7.99011 0,-9.30291 0,-9.30291 -2.81568,-5.93357 -2.81565,-5.93359 -7.52938,-5.18034 -7.52937,-5.18035 -9.88583,-1.63568 -9.88585,-1.6357 -12.48288,1.10489 -12.48287,1.10491 0,31.52103 0,31.52105 8.17843,0.75419 c 4.49815,0.41481 14.62599,0.44847 22.50634,0.0749 z m 41.62985,-31.63233 c 0.94697,0 1.72177,-0.7748 1.72177,-1.72178 0,-0.94697 -0.7748,-1.72177 -1.72177,-1.72177 -0.94698,0 -1.72178,0.7748 -1.72178,1.72177 0,0.94698 0.7748,1.72178 1.72178,1.72178 z m -410.64374,273.73912 -1.72178,0.0224 -9.17292,-16.30469 -9.17291,-16.30469 1.09609,-1.77351 1.09609,-1.77352 7.64638,0 7.64638,0 0,-15.40602 0,-15.406 -9.03933,-0.52043 -9.03933,-0.52043 0.43045,-1.72177 0.43045,-1.72178 19.80043,0 19.80043,0 0.43045,1.72178 0.43044,1.72177 -9.03933,0.52043 -9.03932,0.52043 0,15.406 0,15.40602 8.60888,0 8.60888,0 0,2.46689 c 0,1.35678 -4.0677,9.48185 -9.03933,18.05573 l -9.03933,15.58885 -1.72177,0.0226 z m 0,-5.14197 c 0.30976,0 3.72938,-5.49166 7.59916,-12.20368 3.86976,-6.71204 7.03594,-12.52303 7.03594,-12.91332 0,-0.39032 -6.5858,-0.70965 -14.6351,-0.70965 -8.04931,0 -14.6351,0.31933 -14.6351,0.70965 0,0.39029 3.16618,6.20128 7.03593,12.91332 3.86978,6.71202 7.2894,12.20368 7.59917,12.20368 z m 103.3066,5.14197 -1.72178,0.0224 -9.17292,-16.30469 -9.17292,-16.30469 1.0961,-1.77351 1.09609,-1.77352 7.64638,0 7.64638,0 0,-15.40602 0,-15.406 -9.03933,-0.52043 -9.03932,-0.52043 0.43044,-1.72177 0.43045,-1.72178 19.80043,0 19.80043,0 0.43044,1.72178 0.43045,1.72177 -9.03933,0.52043 -9.03933,0.52043 0,15.406 0,15.40602 8.60889,0 8.60888,0 0,2.46689 c 0,1.35678 -4.0677,9.48185 -9.03933,18.05573 l -9.03933,15.58885 -1.72177,0.0226 z m 0,-5.14197 c 0.30976,0 3.72938,-5.49166 7.59916,-12.20368 3.86977,-6.71204 7.03595,-12.52303 7.03595,-12.91332 0,-0.39032 -6.58581,-0.70965 -14.63511,-0.70965 -8.04931,0 -14.6351,0.31933 -14.6351,0.70965 0,0.39029 3.16617,6.20128 7.03593,12.91332 3.86978,6.71202 7.2894,12.20368 7.59917,12.20368 z m 172.17766,5.14197 -1.72177,0.0224 -9.17292,-16.30469 -9.17292,-16.30469 1.0961,-1.77351 1.09608,-1.77352 7.64639,0 7.64638,0 0,-15.40602 0,-15.406 -9.03933,-0.52043 -9.03932,-0.52043 0.43044,-1.72177 0.43044,-1.72178 19.80043,0 19.80044,0 0.43044,1.72178 0.43045,1.72177 -9.03933,0.52043 -9.03933,0.52043 0,15.406 0,15.40602 8.60888,0 8.60889,0 0,2.46689 c 0,1.35678 -4.0677,9.48185 -9.03933,18.05573 l -9.03933,15.58885 -1.72178,0.0226 z m 0,-5.14197 c 0.30977,0 3.72939,-5.49166 7.59917,-12.20368 3.86977,-6.71204 7.03594,-12.52303 7.03594,-12.91332 0,-0.39032 -6.5858,-0.70965 -14.63511,-0.70965 -8.0493,0 -14.63509,0.31933 -14.63509,0.70965 0,0.39029 3.16617,6.20128 7.03593,12.91332 3.86978,6.71202 7.2894,12.20368 7.59916,12.20368 z m 0,-132.60017 -1.72177,0.0226 -9.17292,-16.30469 -9.17292,-16.30469 1.0961,-1.77351 1.09608,-1.77352 7.64639,0 7.64638,0 0,-15.40601 0,-15.40601 -9.03933,-0.52042 -9.03932,-0.52042 0.43044,-1.72179 0.43044,-1.72177 19.80043,0 19.80044,0 0.43044,1.72177 0.43045,1.72179 -9.03933,0.52042 -9.03933,0.52042 0,15.40601 0,15.40601 8.60888,0 8.60889,0 0,2.46689 c 0,1.35678 -4.0677,9.48186 -9.03933,18.05575 l -9.03933,15.58884 -1.72178,0.0224 z m 0,-5.14197 c 0.30977,0 3.72939,-5.49165 7.59917,-12.20368 3.86977,-6.71202 7.03594,-12.52303 7.03594,-12.91332 0,-0.3903 -6.5858,-0.70965 -14.63511,-0.70965 -8.0493,0 -14.63509,0.31935 -14.63509,0.70965 0,0.39029 3.16617,6.2013 7.03593,12.91332 3.86978,6.71203 7.2894,12.20368 7.59916,12.20368 z"
       style="fill:#000000" />
    <text
       sodipodi:linespacing="125%"
       id="text3113"
       y="255.76248"
       x="59.234493"
       style="font-size:28.35470009px;font-style:normal;font-weight:normal;line-height:125%;letter-spacing:0px;word-spacing:0px;fill:#000000;fill-opacity:1;stroke:none;font-family:Sans"
       xml:space="preserve"><tspan
         style="font-style:normal;font-variant:normal;font-weight:normal;font-stretch:normal;font-family:DejaVu Serif;-inkscape-font-specification:DejaVu Serif"
         y="255.76248"
         x="59.234493"
         id="tspan3115"
         sodipodi:role="line">u1</tspan></text>
    <text
       sodipodi:linespacing="125%"
       id="text3113-7"
       y="97.104584"
       x="631.33167"
       style="font-size:28.35470009px;font-style:normal;font-weight:normal;line-height:125%;letter-spacing:0px;word-spacing:0px;fill:#000000;fill-opacity:1;stroke:none;font-family:Sans"
       xml:space="preserve"><tspan
         style="font-style:normal;font-variant:normal;font-weight:normal;font-stretch:normal;font-family:DejaVu Serif;-inkscape-font-specification:DejaVu Serif"
         y="97.104584"
         x="631.33167"
         id="tspan3115-8"
         sodipodi:role="line">u2</tspan></text>
    <text
       sodipodi:linespacing="125%"
       id="text3113-7-7"
       y="242.07739"
       x="654.59058"
       style="font-size:28.35470009px;font-style:normal;font-weight:normal;line-height:125%;letter-spacing:0px;word-spacing:0px;fill:#000000;fill-opacity:1;stroke:none;font-family:Sans"
       xml:space="preserve"><tspan
         style="font-style:normal;font-variant:normal;font-weight:normal;font-stretch:normal;font-family:DejaVu Serif;-inkscape-font-specification:DejaVu Serif"
         y="242.07739"
         x="654.59058"
         id="tspan3115-8-7"
         sodipodi:role="line">u3</tspan></text>
    <text
       sodipodi:linespacing="125%"
       id="text3113-7-7-1"
       y="398.43091"
       x="657.15393"
       style="font-size:28.35470009px;font-style:normal;font-weight:normal;line-height:125%;letter-spacing:0px;word-spacing:0px;fill:#000000;fill-opacity:1;stroke:none;font-family:Sans"
       xml:space="preserve"><tspan
         style="font-style:normal;font-variant:normal;font-weight:normal;font-stretch:normal;font-family:DejaVu Serif;-inkscape-font-specification:DejaVu Serif"
         y="398.43091"
         x="657.15393"
         id="tspan3115-8-7-3"
         sodipodi:role="line">f1</tspan></text>
    <text
       sodipodi:linespacing="125%"
       id="text3180"
       y="441.06976"
       x="645.42078"
       style="font-size:68.87106323px;font-style:normal;font-weight:normal;line-height:125%;letter-spacing:0px;word-spacing:0px;fill:#000000;fill-opacity:1;stroke:none;font-family:Sans"
       xml:space="preserve"><tspan
         style="font-size:20.66132164px"
         y="441.06976"
         x="645.42078"
         id="tspan3182"
         sodipodi:role="line">d</tspan></text>
    <text
       sodipodi:linespacing="125%"
       id="text3180-1"
       y="437.2063"
       x="703.14923"
       style="font-size:68.87106323px;font-style:normal;font-weight:normal;line-height:125%;letter-spacing:0px;word-spacing:0px;fill:#000000;fill-opacity:1;stroke:none;font-family:Sans"
       xml:space="preserve"><tspan
         style="font-size:20.66132164px"
         y="437.2063"
         x="703.14923"
         id="tspan3182-3"
         sodipodi:role="line">q</tspan></text>
    <text
       sodipodi:linespacing="125%"
       id="text3205"
       y="301.05954"
       x="636.49872"
       style="font-size:68.87106323px;font-style:normal;font-weight:normal;line-height:125%;letter-spacing:0px;word-spacing:0px;fill:#000000;fill-opacity:1;stroke:none;font-family:Sans"
       xml:space="preserve"><tspan
         style="font-size:20.66132164px"
         y="301.05954"
         x="636.49872"
         id="tspan3207"
         sodipodi:role="line">a</tspan></text>
    <text
       sodipodi:linespacing="125%"
       id="text3205-0"
       y="128.33823"
       x="629.05951"
       style="font-size:68.87106323px;font-style:normal;font-weight:normal;line-height:125%;letter-spacing:0px;word-spacing:0px;fill:#000000;fill-opacity:1;stroke:none;font-family:Sans"
       xml:space="preserve"><tspan
         style="font-size:20.66132164px"
         y="128.33823"
         x="629.05951"
         id="tspan3207-8"
         sodipodi:role="line">a</tspan></text>
    <text
       sodipodi:linespacing="125%"
       id="text3205-0-3"
       y="163.64516"
       x="629.66815"
       style="font-size:68.87106323px;font-style:normal;font-weight:normal;line-height:125%;letter-spacing:0px;word-spacing:0px;fill:#000000;fill-opacity:1;stroke:none;font-family:Sans"
       xml:space="preserve"><tspan
         style="font-size:20.66132164px"
         y="163.64516"
         x="629.66815"
         id="tspan3207-8-3"
         sodipodi:role="line">b</tspan></text>
    <text
       sodipodi:linespacing="125%"
       id="text3205-0-3-3"
       y="147.44606"
       x="670.7533"
       style="font-size:68.87106323px;font-style:normal;font-weight:normal;line-height:125%;letter-spacing:0px;word-spacing:0px;fill:#000000;fill-opacity:1;stroke:none;font-family:Sans"
       xml:space="preserve"><tspan
         style="font-size:20.66132164px"
         y="147.44606"
         x="670.7533"
         id="tspan3207-8-3-9"
         sodipodi:role="line">o</tspan></text>
    <text
       sodipodi:linespacing="125%"
       id="text3205-0-3-3-9"
       y="300.53076"
       x="659.09192"
       style="font-size:68.87106323px;font-style:normal;font-weight:normal;line-height:125%;letter-spacing:0px;word-spacing:0px;fill:#000000;fill-opacity:1;stroke:none;font-family:Sans"
       xml:space="preserve"><tspan
         style="font-size:20.66132164px"
         y="300.53076"
         x="659.09192"
         id="tspan3207-8-3-9-9"
         sodipodi:role="line">o</tspan></text>
    <text
       sodipodi:linespacing="125%"
       id="text3205-7"
       y="283.56689"
       x="38.790527"
       style="font-size:68.87106323px;font-style:normal;font-weight:normal;line-height:125%;letter-spacing:0px;word-spacing:0px;fill:#000000;fill-opacity:1;stroke:none;font-family:Sans"
       xml:space="preserve"><tspan
         style="font-size:20.66132164px"
         y="283.56689"
         x="38.790527"
         id="tspan3207-1"
         sodipodi:role="line">a</tspan></text>
    <text
       sodipodi:linespacing="125%"
       id="text3205-7-1"
       y="317.62057"
       x="39.190441"
       style="font-size:68.87106323px;font-style:normal;font-weight:normal;line-height:125%;letter-spacing:0px;word-spacing:0px;fill:#000000;fill-opacity:1;stroke:none;font-family:Sans"
       xml:space="preserve"><tspan
         style="font-size:20.66132164px"
         y="317.62057"
         x="39.190441"
         id="tspan3207-1-3"
         sodipodi:role="line">b</tspan></text>
    <text
       sodipodi:linespacing="125%"
       id="text3205-7-1-6"
       y="300.0029"
       x="86.063408"
       style="font-size:68.87106323px;font-style:normal;font-weight:normal;line-height:125%;letter-spacing:0px;word-spacing:0px;fill:#000000;fill-opacity:1;stroke:none;font-family:Sans"
       xml:space="preserve"><tspan
         style="font-size:20.66132164px"
         y="300.0029"
         x="86.063408"
         id="tspan3207-1-3-8"
         sodipodi:role="line">o</tspan></text>
    <text
       sodipodi:linespacing="125%"
       id="text3368"
       y="345.49759"
       x="225.99889"
       style="font-size:68.87106323px;font-style:normal;font-weight:normal;line-height:125%;letter-spacing:0px;word-spacing:0px;fill:#000000;fill-opacity:1;stroke:none;font-family:Sans"
       xml:space="preserve"><tspan
         style="font-size:24.10487366px"
         y="345.49759"
         x="225.99889"
         id="tspan3370"
         sodipodi:role="line">C0</tspan></text>
    <text
       sodipodi:linespacing="125%"
       id="text3368-8"
       y="346.96722"
       x="331.16644"
       style="font-size:68.87106323px;font-style:normal;font-weight:normal;line-height:125%;letter-spacing:0px;word-spacing:0px;fill:#000000;fill-opacity:1;stroke:none;font-family:Sans"
       xml:space="preserve"><tspan
         style="font-size:24.10487366px"
         y="346.96722"
         x="331.16644"
         id="tspan3370-5"
         sodipodi:role="line">C1</tspan></text>
    <text
       sodipodi:linespacing="125%"
       id="text3368-8-9"
       y="210.00073"
       x="501.92548"
       style="font-size:68.87106323px;font-style:normal;font-weight:normal;line-height:125%;letter-spacing:0px;word-spacing:0px;fill:#000000;fill-opacity:1;stroke:none;font-family:Sans"
       xml:space="preserve"><tspan
         style="font-size:24.10487366px"
         y="210.00073"
         x="501.92548"
         id="tspan3370-5-1"
         sodipodi:role="line">C2</tspan></text>
    <text
       sodipodi:linespacing="125%"
       id="text3368-8-9-5"
       y="347.57593"
       x="502.62842"
       style="font-size:68.87106323px;font-style:normal;font-weight:normal;line-height:125%;letter-spacing:0px;word-spacing:0px;fill:#000000;fill-opacity:1;stroke:none;font-family:Sans"
       xml:space="preserve"><tspan
         style="font-size:24.10487366px"
         y="347.57593"
         x="502.62842"
         id="tspan3370-5-1-5"
         sodipodi:role="line">C3</tspan></text>
    <text
       sodipodi:linespacing="125%"
       id="text3368-8-9-5-1"
       y="483.32498"
       x="500.56085"
       style="font-size:68.87106323px;font-style:normal;font-weight:normal;line-height:125%;letter-spacing:0px;word-spacing:0px;fill:#000000;fill-opacity:1;stroke:none;font-family:Sans"
       xml:space="preserve"><tspan
         style="font-size:24.10487366px"
         y="483.32498"
         x="500.56085"
         id="tspan3370-5-1-5-1"
         sodipodi:role="line">C4</tspan></text>
    <text
       sodipodi:linespacing="125%"
       id="text3456"
       y="265.75262"
       x="323.39737"
       style="font-size:68.87106323px;font-style:normal;font-weight:normal;line-height:125%;letter-spacing:0px;word-spacing:0px;fill:#000000;fill-opacity:1;stroke:none;font-family:Sans"
       xml:space="preserve"><tspan
         style="font-size:24.10487366px"
         y="265.75262"
         x="323.39737"
         id="tspan3458"
         sodipodi:role="line">R1</tspan></text>
    <text
       sodipodi:linespacing="125%"
       id="text3456-2"
       y="135.7462"
       x="478.94312"
       style="font-size:68.87106323px;font-style:normal;font-weight:normal;line-height:125%;letter-spacing:0px;word-spacing:0px;fill:#000000;fill-opacity:1;stroke:none;font-family:Sans"
       xml:space="preserve"><tspan
         style="font-size:24.10487366px"
         y="135.7462"
         x="478.94312"
         id="tspan3458-8"
         sodipodi:role="line">R2</tspan></text>
    <text
       sodipodi:linespacing="125%"
       id="text3456-2-1"
       y="269.82788"
       x="477.81982"
       style="font-size:68.87106323px;font-style:normal;font-weight:normal;line-height:125%;letter-spacing:0px;word-spacing:0px;fill:#000000;fill-opacity:1;stroke:none;font-family:Sans"
       xml:space="preserve"><tspan
         style="font-size:24.10487366px"
         y="269.82788"
         x="477.81982"
         id="tspan3458-8-9"
         sodipodi:role="line">R3</tspan></text>
    <text
       sodipodi:linespacing="125%"
       id="text3456-2-1-6"
       y="408.44995"
       x="473.92599"
       style="font-size:68.87106323px;font-style:normal;font-weight:normal;line-height:125%;letter-spacing:0px;word-spacing:0px;fill:#000000;fill-opacity:1;stroke:none;font-family:Sans"
       xml:space="preserve"><tspan
         style="font-size:24.10487366px"
         y="408.44995"
         x="473.92599"
         id="tspan3458-8-9-2"
         sodipodi:role="line">R4</tspan></text>
    <path
       inkscape:connector-curvature="0"
       id="path3561"
       d="m 572.85699,69.681241 -432.74935,193.934549 -1.41421,76.36753 439.82042,264.45794 c 0,0 62.2254,-338.37163 -5.65686,-534.760019 z"
       style="opacity:0.93670888;fill:#008080;stroke:none" />
    <rect
       y="103.62237"
       x="605.38391"
       height="79.383247"
       width="97.580734"
       id="rect4339"
       style="opacity:0.93670888;fill:#00ff00;stroke:none" />
    <rect
       y="255.13052"
       x="623.76868"
       height="83.438591"
       width="73.539108"
       id="rect4341"
       style="opacity:0.93670888;fill:#00ff00;stroke:none" />
    <rect
       y="403.62296"
       x="619.52606"
       height="132.93604"
       width="111.94097"
       id="rect4343"
       style="opacity:0.93670888;fill:#00ff00;stroke:none" />
    <rect
       rx="0"
       ry="35.355339"
       y="255.13049"
       x="31.213203"
       height="137.17871"
       width="90.509674"
       id="rect4345"
       style="opacity:0.93670888;fill:#ffffff;stroke:none" />
    <rect
       rx="0"
       ry="16.263456"
       y="249.64169"
       x="63.113201"
       height="32.526913"
       width="96.166519"
       id="rect4347"
       style="opacity:0.93670888;fill:#ffff00;stroke:none"
       transform="matrix(0.99087727,0.13476734,-0.13476734,0.99087727,0,0)" />
    <rect
       rx="0"
       ry="16.263456"
       y="310.68973"
       x="-36.134087"
       height="33.941124"
       width="101.82338"
       id="rect4349"
       style="opacity:0.93670888;fill:#ffff00;stroke:none"
       transform="matrix(0.98237659,-0.18691236,0.18691236,0.98237659,0,0)" />
    <text
       sodipodi:linespacing="125%"
       id="text4370"
       y="277.22455"
       x="64.918243"
       style="font-size:33.49265671px;font-style:normal;font-weight:normal;line-height:125%;letter-spacing:0px;word-spacing:0px;fill:#000000;fill-opacity:1;stroke:none;font-family:Sans"
       xml:space="preserve"
       transform="matrix(0.99087727,0.13476734,-0.13476734,0.99087727,0,0)"><tspan
         style="font-family:Dejavu serif;-inkscape-font-specification:Dejavu serif"
         y="277.22455"
         x="64.918243"
         id="tspan4372"
         sodipodi:role="line">a → o</tspan></text>
    <text
       sodipodi:linespacing="125%"
       id="text4370-3"
       y="338.73221"
       x="-29.492624"
       style="font-size:33.49265671px;font-style:normal;font-weight:normal;line-height:125%;letter-spacing:0px;word-spacing:0px;fill:#000000;fill-opacity:1;stroke:none;font-family:Sans"
       xml:space="preserve"
       transform="matrix(0.98237659,-0.18691236,0.18691236,0.98237659,0,0)"><tspan
         style="font-family:dejavu serif;-inkscape-font-specification:dejavu serif"
         y="338.73221"
         x="-29.492624"
         id="tspan4372-7"
         sodipodi:role="line">b → o</tspan></text>
    <text
       sodipodi:linespacing="125%"
       id="text4395"
       y="313.18921"
       x="157.60461"
       style="font-size:34.63646317px;font-style:normal;font-weight:normal;line-height:125%;letter-spacing:0px;word-spacing:0px;fill:#000000;fill-opacity:1;stroke:none;font-family:Sans"
       xml:space="preserve"><tspan
         style="font-family:dejavu serif;-inkscape-font-specification:dejavu serif"
         y="313.18921"
         x="157.60461"
         id="tspan4397"
         sodipodi:role="line">Modelo de Interconexão</tspan></text>
    <text
       sodipodi:linespacing="125%"
       id="text4413"
       y="136.00452"
       x="622.82788"
       style="font-size:26.53326988px;font-style:normal;font-weight:normal;line-height:125%;letter-spacing:0px;word-spacing:0px;fill:#000000;fill-opacity:1;stroke:none;font-family:Sans"
       xml:space="preserve"><tspan
         y="136.00452"
         x="622.82788"
         id="tspan4415"
         sodipodi:role="line"
         style="font-style:italic;-inkscape-font-specification:Sans Italic">load</tspan><tspan
         id="tspan4417"
         y="169.1711"
         x="622.82788"
         sodipodi:role="line">u2:a</tspan></text>
    <text
       sodipodi:linespacing="125%"
       id="text4413-5"
       y="288.7113"
       x="632.3653"
       style="font-size:23.02122498px;font-style:normal;font-weight:normal;line-height:125%;letter-spacing:0px;word-spacing:0px;fill:#000000;fill-opacity:1;stroke:none;font-family:Sans"
       xml:space="preserve"><tspan
         y="288.7113"
         x="632.3653"
         id="tspan4415-5"
         sodipodi:role="line"
         style="font-style:italic;-inkscape-font-specification:Sans Italic">load</tspan><tspan
         id="tspan4417-7"
         y="317.48782"
         x="632.3653"
         sodipodi:role="line">u3:a</tspan></text>
    <text
       sodipodi:linespacing="125%"
       id="text4413-5-0"
       y="457.12967"
       x="634.50739"
       style="font-size:33.32339859px;font-style:normal;font-weight:normal;line-height:125%;letter-spacing:0px;word-spacing:0px;fill:#000000;fill-opacity:1;stroke:none;font-family:Sans"
       xml:space="preserve"><tspan
         y="457.12967"
         x="634.50739"
         id="tspan4415-5-8"
         sodipodi:role="line"
         style="font-style:italic;-inkscape-font-specification:Sans Italic">load</tspan><tspan
         id="tspan4417-7-1"
         y="498.78394"
         x="634.50739"
         sodipodi:role="line">f1:d</tspan></text>
    <text
       xml:space="preserve"
       style="font-size:22.28557014px;font-style:normal;font-variant:normal;font-weight:normal;font-stretch:normal;line-height:125%;letter-spacing:0px;word-spacing:0px;fill:#000000;fill-opacity:1;stroke:none;font-family:DejaVu Serif;-inkscape-font-specification:DejaVu Serif"
       x="13.667441"
       y="367.96054"
       id="text7043"
       sodipodi:linespacing="125%"><tspan
         sodipodi:role="line"
         id="tspan7045"
         x="13.667441"
         y="367.96054"
         style="font-style:italic;-inkscape-font-specification:DejaVu Serif Italic">Timing Arcs</tspan></text>
  </g>
  <path
     style="fill:none;stroke:#000000;stroke-width:1;stroke-linecap:butt;stroke-linejoin:miter;stroke-miterlimit:4;stroke-opacity:1;stroke-dasharray:none;marker-start:none;marker-mid:none;marker-end:url(#Arrow2Lend)"
     d="m 109.02562,45.405547 466.69046,0"
     id="path4765"
     inkscape:connector-curvature="0" />
  <text
     xml:space="preserve"
     style="font-size:103.66634369px;font-style:normal;font-variant:normal;font-weight:normal;font-stretch:normal;line-height:125%;letter-spacing:0px;word-spacing:0px;fill:#000000;fill-opacity:1;stroke:none;font-family:DejaVu Serif;-inkscape-font-specification:DejaVu Serif"
     x="178.40334"
     y="29.552071"
     id="text7007"
     sodipodi:linespacing="125%"><tspan
       sodipodi:role="line"
       id="tspan7009"
       x="178.40334"
       y="29.552071"
       style="font-size:31.09990311px">Atraso de Propagação</tspan></text>
  <path
     style="fill:none;stroke:#000000;stroke-width:1;stroke-linecap:butt;stroke-linejoin:miter;stroke-miterlimit:4;stroke-opacity:1;stroke-dasharray:none;marker-start:none;marker-mid:none;marker-end:url(#Arrow2Lend)"
     d="m 124.1373,643.46033 466.69046,0"
     id="path4765-2"
     inkscape:connector-curvature="0" />
  <text
     xml:space="preserve"
     style="font-size:103.66634369px;font-style:normal;font-variant:normal;font-weight:normal;font-stretch:normal;line-height:125%;letter-spacing:0px;word-spacing:0px;fill:#000000;fill-opacity:1;stroke:none;font-family:DejaVu Serif;-inkscape-font-specification:DejaVu Serif"
     x="193.51503"
     y="627.60687"
     id="text7007-9"
     sodipodi:linespacing="125%"><tspan
       sodipodi:role="line"
       id="tspan7009-0"
       x="193.51503"
       y="627.60687"
       style="font-size:31.09990311px">Degradação no <tspan
   style="font-style:italic;-inkscape-font-specification:DejaVu Serif Italic"
   id="tspan7041">Slew</tspan></tspan></text>
</svg>
